<svg viewBox="0 0 71 71">
    <path
        d="M35.8868 69.7133C54.948 69.334 70.0926 53.5744 69.7133 34.5133C69.334 15.4521 53.5744 0.307499 34.5133 0.686804C15.4521 1.06611 0.307487 16.8257 0.686792 35.8869C1.0661 54.948 16.8257 70.0926 35.8868 69.7133Z"
        fill="url(#paint0_radial_92_854)" />
    <path style="mix-blend-mode:overlay" opacity="0.5"
        d="M17.5773 44.8082C10.2256 44.9782 4.12054 38.5119 3.92931 30.367C3.74516 22.2221 9.55281 15.4867 16.8974 15.3167C24.249 15.1467 30.3541 21.613 30.5453 29.7579C30.7295 37.9028 24.9218 44.6382 17.5773 44.8082Z"
        fill="url(#paint1_radial_92_854)" />
    <path
        d="M69.322 30.1545C68.9679 27.7465 68.3659 25.3668 67.5018 23.0649L67.4664 23.0862C36.2467 44.8224 1.56372 43.0022 1.56372 43.0022C2.11616 45.3819 2.92356 47.7049 3.97177 49.943C11.4013 49.9855 41.4594 48.8877 69.3149 30.1545H69.322Z"
        fill="url(#paint2_linear_92_854)" />
    <path style="mix-blend-mode:screen"
        d="M1.66287 43.2996C1.66287 43.2996 36.3388 45.1198 67.5655 23.3837L67.6009 23.3624C67.8063 23.9078 67.9905 24.4602 68.1675 25.0126C67.9692 24.361 67.7497 23.7094 67.5089 23.0649L67.4734 23.0862C36.2538 44.8224 1.5708 43.0022 1.5708 43.0022C1.72662 43.6679 1.90368 44.3337 2.10199 44.9923C1.93909 44.4328 1.79036 43.8662 1.66287 43.2996V43.2996Z"
        fill="url(#paint3_linear_92_854)" />
    <path style="mix-blend-mode:multiply"
        d="M69.2796 30.0199C41.4241 48.7531 11.3731 49.8509 3.93645 49.8084C3.16445 48.1653 2.52703 46.4726 2.01709 44.7444C2.52703 46.5221 3.17862 48.2574 3.97894 49.9501C11.4085 49.9926 41.4666 48.8948 69.3221 30.1616C69.0529 28.3414 68.6422 26.5353 68.0897 24.7647C68.6209 26.4858 69.0175 28.2422 69.2796 30.0199V30.0199Z"
        fill="url(#paint4_linear_92_854)" />
    <defs>
        <radialGradient id="paint0_radial_92_854" cx="0" cy="0" r="1" gradientUnits="userSpaceOnUse"
            gradientTransform="translate(13.853 32.5518) rotate(-48.38) scale(65.9381)">
            <stop stop-color="#F3D7D6" />
            <stop offset="0.24" stop-color="#ECD2D1" />
            <stop offset="0.38" stop-color="#E6CAC8" />
            <stop offset="0.6" stop-color="#D8B7AF" />
            <stop offset="0.65" stop-color="#D5B3AA" />
            <stop offset="1" stop-color="#A98C7A" />
        </radialGradient>
        <radialGradient id="paint1_radial_92_854" cx="0" cy="0" r="1" gradientUnits="userSpaceOnUse"
            gradientTransform="translate(8.63273 27.8272) rotate(88.69) scale(14.4058 13.2053)">
            <stop stop-color="white" />
            <stop offset="0.45" stop-color="white" stop-opacity="0.34" />
            <stop offset="0.69" stop-color="white" stop-opacity="0" />
        </radialGradient>
        <linearGradient id="paint2_linear_92_854" x1="3.2769" y1="48.8727" x2="69.3567" y2="28.8969"
            gradientUnits="userSpaceOnUse">
            <stop stop-color="#803916" />
            <stop offset="0.03" stop-color="#9A4721" />
            <stop offset="0.16" stop-color="#DD9740" />
            <stop offset="0.19" stop-color="#E6B36E" />
            <stop offset="0.23" stop-color="#EFCB96" />
            <stop offset="0.26" stop-color="#F5DCB3" />
            <stop offset="0.29" stop-color="#F8E7C4" />
            <stop offset="0.31" stop-color="#FAEBCB" />
            <stop offset="0.34" stop-color="#F7DFB1" />
            <stop offset="0.4" stop-color="#F1CA7F" />
            <stop offset="0.45" stop-color="#EDBA5B" />
            <stop offset="0.5" stop-color="#EAB045" />
            <stop offset="0.53" stop-color="#EAAD3D" />
            <stop offset="0.76" stop-color="#A75B29" />
            <stop offset="0.88" stop-color="#B46C2A" />
            <stop offset="0.96" stop-color="#642806" />
            <stop offset="0.99" stop-color="#7D3D16" />
        </linearGradient>
        <linearGradient id="paint3_linear_92_854" x1="2.31634" y1="45.6707" x2="68.3825" y2="25.699"
            gradientUnits="userSpaceOnUse">
            <stop stop-color="#803916" />
            <stop offset="0.03" stop-color="#9A4721" />
            <stop offset="0.16" stop-color="#DD9740" />
            <stop offset="0.19" stop-color="#E6B36E" />
            <stop offset="0.23" stop-color="#EFCB96" />
            <stop offset="0.26" stop-color="#F5DCB3" />
            <stop offset="0.29" stop-color="#F8E7C4" />
            <stop offset="0.31" stop-color="#FAEBCB" />
            <stop offset="0.34" stop-color="#F7DFB1" />
            <stop offset="0.4" stop-color="#F1CA7F" />
            <stop offset="0.45" stop-color="#EDBA5B" />
            <stop offset="0.5" stop-color="#EAB045" />
            <stop offset="0.53" stop-color="#EAAD3D" />
            <stop offset="0.76" stop-color="#A75B29" />
            <stop offset="0.88" stop-color="#B46C2A" />
            <stop offset="0.96" stop-color="#642806" />
            <stop offset="0.99" stop-color="#7D3D16" />
        </linearGradient>
        <linearGradient id="paint4_linear_92_854" x1="3.53726" y1="49.7337" x2="69.617" y2="29.7579"
            gradientUnits="userSpaceOnUse">
            <stop stop-color="#803916" />
            <stop offset="0.03" stop-color="#9A4721" />
            <stop offset="0.16" stop-color="#DD9740" />
            <stop offset="0.19" stop-color="#E6B36E" />
            <stop offset="0.23" stop-color="#EFCB96" />
            <stop offset="0.26" stop-color="#F5DCB3" />
            <stop offset="0.29" stop-color="#F8E7C4" />
            <stop offset="0.31" stop-color="#FAEBCB" />
            <stop offset="0.34" stop-color="#F7DFB1" />
            <stop offset="0.4" stop-color="#F1CA7F" />
            <stop offset="0.45" stop-color="#EDBA5B" />
            <stop offset="0.5" stop-color="#EAB045" />
            <stop offset="0.53" stop-color="#EAAD3D" />
            <stop offset="0.76" stop-color="#A75B29" />
            <stop offset="0.88" stop-color="#B46C2A" />
            <stop offset="0.96" stop-color="#642806" />
            <stop offset="0.99" stop-color="#7D3D16" />
        </linearGradient>
    </defs>
</svg>