<svg viewBox="0 0 202 205">
    <path
        d="M0 0V204.27H201.27V0H0ZM200.748 12.73H188.727V0.529999H200.748V12.73ZM100.896 89.13V76.93H112.917V89.13H100.896ZM112.917 89.66V101.86H100.896V89.66H112.917ZM100.374 89.13H88.3432V76.93H100.374V89.13ZM100.374 89.66V101.86H88.3432V89.66H100.374ZM87.8309 101.86H75.81V89.66H87.8309V101.86ZM87.8309 102.39V114.6H75.81V102.39H87.8309ZM88.3531 102.39H100.384V114.6H88.3531V102.39ZM100.384 115.12V127.32H88.3531V115.12H100.384ZM100.906 115.12H112.927V127.32H100.906V115.12ZM100.906 114.59V102.38H112.927V114.59H100.906ZM113.449 102.38H125.47V114.59H113.449V102.38ZM113.449 101.85V89.65H125.47V101.85H113.449ZM113.449 89.12V76.92H125.47V89.12H113.449ZM113.449 76.39V64.18H125.47V76.39H113.449ZM112.927 76.39H100.906V64.18H112.927V76.39ZM100.384 76.39H88.3531V64.18H100.384V76.39ZM87.8407 76.39H75.8199V64.18H87.8407V76.39ZM87.8407 76.92V89.12H75.8199V76.92H87.8407ZM75.2977 89.12H63.2768V76.92H75.2977V89.12ZM75.2977 89.65V101.85H63.2768V89.65H75.2977ZM75.2977 102.38V114.59H63.2768V102.38H75.2977ZM75.2977 115.11V127.31H63.2768V115.11H75.2977ZM75.8199 115.11H87.8407V127.31H75.8199V115.11ZM87.8407 127.84V140.04H75.8199V127.84H87.8407ZM88.3629 127.84H100.394V140.04H88.3629V127.84ZM100.906 127.84H112.927V140.04H100.906V127.84ZM113.449 127.84H125.47V140.04H113.449V127.84ZM113.449 127.31V115.11H125.47V127.31H113.449ZM125.992 115.11H138.013V127.31H125.992V115.11ZM125.992 114.58V102.37H138.013V114.58H125.992ZM125.992 101.85V89.65H138.013V101.85H125.992ZM125.992 89.12V76.92H138.013V89.12H125.992ZM125.992 76.39V64.18H138.013V76.39H125.992ZM125.992 63.66V51.46H138.013V63.66H125.992ZM125.47 63.66H113.449V51.46H125.47V63.66ZM112.927 63.66H100.906V51.46H112.927V63.66ZM100.384 63.66H88.3531V51.46H100.384V63.66ZM87.8407 63.66H75.8199V51.46H87.8407V63.66ZM75.2977 63.66H63.2768V51.46H75.2977V63.66ZM75.2977 64.19V76.4H63.2768V64.19H75.2977ZM62.7546 76.4H50.7338V64.19H62.7546V76.4ZM62.7546 76.93V89.13H50.7338V76.93H62.7546ZM62.7546 89.66V101.86H50.7338V89.66H62.7546ZM62.7546 102.39V114.6H50.7338V102.39H62.7546ZM62.7546 115.12V127.32H50.7338V115.12H62.7546ZM62.7546 127.85V140.05H50.7338V127.85H62.7546ZM63.2768 127.85H75.2977V140.05H63.2768V127.85ZM75.2977 140.58V152.78H63.2768V140.58H75.2977ZM75.8199 140.58H87.8407V152.78H75.8199V140.58ZM88.3629 140.58H100.394V152.78H88.3629V140.58ZM100.906 140.58H112.927V152.78H100.906V140.58ZM113.449 140.58H125.47V152.78H113.449V140.58ZM125.992 140.58H138.013V152.78H125.992V140.58ZM125.992 140.05V127.85H138.013V140.05H125.992ZM138.535 127.85H150.556V140.05H138.535V127.85ZM138.535 127.32V115.12H150.556V127.32H138.535ZM138.535 114.59V102.38H150.556V114.59H138.535ZM138.535 101.86V89.66H150.556V101.86H138.535ZM138.535 89.13V76.93H150.556V89.13H138.535ZM138.535 76.4V64.19H150.556V76.4H138.535ZM138.535 63.67V51.47H150.556V63.67H138.535ZM138.535 50.94V38.74H150.556V50.94H138.535ZM138.013 50.94H125.992V38.74H138.013V50.94ZM125.47 50.94H113.449V38.74H125.47V50.94ZM112.927 50.94H100.906V38.74H112.927V50.94ZM100.384 50.94H88.3531V38.74H100.384V50.94ZM87.8407 50.94H75.8199V38.74H87.8407V50.94ZM75.2977 50.94H63.2768V38.74H75.2977V50.94ZM62.7546 50.94H50.7338V38.74H62.7546V50.94ZM62.7546 51.47V63.67H50.7338V51.47H62.7546ZM50.2116 63.67H38.1908V51.47H50.2116V63.67ZM50.2116 64.2V76.41H38.1908V64.2H50.2116ZM50.2116 76.93V89.13H38.1908V76.93H50.2116ZM50.2116 89.66V101.86H38.1908V89.66H50.2116ZM50.2116 102.39V114.6H38.1908V102.39H50.2116ZM50.2116 115.12V127.32H38.1908V115.12H50.2116ZM50.2116 127.85V140.05H38.1908V127.85H50.2116ZM50.2116 140.58V152.78H38.1908V140.58H50.2116ZM50.7338 140.58H62.7546V152.78H50.7338V140.58ZM62.7546 153.31V165.52H50.7338V153.31H62.7546ZM63.2768 153.31H75.2977V165.52H63.2768V153.31ZM75.8199 153.31H87.8407V165.52H75.8199V153.31ZM88.3629 153.31H100.394V165.52H88.3629V153.31ZM100.906 153.31H112.927V165.52H100.906V153.31ZM113.449 153.31H125.47V165.52H113.449V153.31ZM125.992 153.31H138.013V165.52H125.992V153.31ZM138.535 153.31H150.556V165.52H138.535V153.31ZM138.535 152.78V140.58H150.556V152.78H138.535ZM151.078 140.58H163.109V152.78H151.078V140.58ZM151.078 140.05V127.85H163.109V140.05H151.078ZM151.078 127.32V115.12H163.109V127.32H151.078ZM151.078 114.59V102.38H163.109V114.59H151.078ZM151.078 101.86V89.66H163.109V101.86H151.078ZM151.078 89.13V76.93H163.109V89.13H151.078ZM151.078 76.4V64.19H163.109V76.4H151.078ZM151.078 63.67V51.47H163.109V63.67H151.078ZM151.078 50.94V38.74H163.109V50.94H151.078ZM151.078 38.21V26H163.109V38.21H151.078V38.21ZM150.556 38.21H138.535V26H150.556V38.21V38.21ZM138.013 38.21H125.992V26H138.013V38.21V38.21ZM125.47 38.21H113.449V26H125.47V38.21V38.21ZM112.927 38.21H100.906V26H112.927V38.21V38.21ZM100.384 38.21H88.3531V26H100.384V38.21V38.21ZM87.8407 38.21H75.8199V26H87.8407V38.21V38.21ZM75.2977 38.21H63.2768V26H75.2977V38.21V38.21ZM62.7546 38.21H50.7338V26H62.7546V38.21V38.21ZM50.2116 38.21H38.1908V26H50.2116V38.21V38.21ZM50.2116 38.74V50.94H38.1908V38.74H50.2116ZM37.6685 50.94H25.6477V38.74H37.6685V50.94ZM37.6685 51.47V63.67H25.6477V51.47H37.6685ZM37.6685 64.2V76.41H25.6477V64.2H37.6685ZM37.6685 76.93V89.13H25.6477V76.93H37.6685ZM37.6685 89.66V101.86H25.6477V89.66H37.6685ZM37.6685 102.39V114.6H25.6477V102.39H37.6685ZM37.6685 115.12V127.32H25.6477V115.12H37.6685ZM37.6685 127.85V140.05H25.6477V127.85H37.6685ZM37.6685 140.58V152.78H25.6477V140.58H37.6685ZM37.6685 153.31V165.52H25.6477V153.31H37.6685ZM38.1908 153.31H50.2116V165.52H38.1908V153.31ZM50.2116 166.04V178.24H38.1908V166.04H50.2116V166.04ZM50.7338 166.04H62.7546V178.24H50.7338V166.04V166.04ZM63.2768 166.04H75.2977V178.24H63.2768V166.04V166.04ZM75.8199 166.04H87.8407V178.24H75.8199V166.04V166.04ZM88.3629 166.04H100.394V178.24H88.3629V166.04V166.04ZM100.906 166.04H112.927V178.24H100.906V166.04V166.04ZM113.449 166.04H125.47V178.24H113.449V166.04V166.04ZM125.992 166.04H138.013V178.24H125.992V166.04V166.04ZM138.535 166.04H150.556V178.24H138.535V166.04V166.04ZM151.078 166.04H163.109V178.24H151.078V166.04V166.04ZM151.078 165.51V153.3H163.109V165.51H151.078ZM163.621 153.3H175.642V165.51H163.621V153.3ZM163.621 152.77V140.57H175.642V152.77H163.621ZM163.621 140.04V127.84H175.642V140.04H163.621ZM163.621 127.31V115.11H175.642V127.31H163.621ZM163.621 114.58V102.37H175.642V114.58H163.621ZM163.621 101.85V89.65H175.642V101.85H163.621ZM163.621 89.12V76.92H175.642V89.12H163.621ZM163.621 76.39V64.18H175.642V76.39H163.621ZM163.621 63.66V51.46H175.642V63.66H163.621ZM163.621 50.93V38.73H175.642V50.93H163.621ZM163.621 38.2V25.99H175.642V38.2H163.621V38.2ZM163.621 25.47V13.27H175.642V25.47H163.621ZM163.099 25.47H151.068V13.27H163.099V25.47ZM150.556 25.47H138.535V13.27H150.556V25.47ZM138.013 25.47H125.992V13.27H138.013V25.47ZM125.47 25.47H113.449V13.27H125.47V25.47ZM112.927 25.47H100.906V13.27H112.927V25.47ZM100.384 25.47H88.3531V13.27H100.384V25.47ZM87.8407 25.47H75.8199V13.27H87.8407V25.47ZM75.2977 25.47H63.2768V13.27H75.2977V25.47ZM62.7546 25.47H50.7338V13.27H62.7546V25.47ZM50.2116 25.47H38.1908V13.27H50.2116V25.47ZM37.6685 25.47H25.6477V13.27H37.6685V25.47ZM37.6685 26V38.21H25.6477V26H37.6685ZM25.1255 38.21H13.0948V26H25.1255V38.21ZM25.1255 38.74V50.94H13.0948V38.74H25.1255V38.74ZM25.1255 51.47V63.67H13.0948V51.47H25.1255ZM25.1255 64.2V76.41H13.0948V64.2H25.1255ZM25.1255 76.93V89.13H13.0948V76.93H25.1255ZM25.1255 89.66V101.86H13.0948V89.66H25.1255ZM25.1255 102.39V114.6H13.0948V102.39H25.1255ZM25.1255 115.12V127.32H13.0948V115.12H25.1255ZM25.1255 127.85V140.05H13.0948V127.85H25.1255ZM25.1255 140.58V152.78H13.0948V140.58H25.1255ZM25.1255 153.31V165.52H13.0948V153.31H25.1255ZM25.1255 166.04V178.24H13.0948V166.04H25.1255ZM25.6477 166.04H37.6685V178.24H25.6477V166.04ZM37.6685 178.77V190.97H25.6477V178.77H37.6685ZM38.1908 178.77H50.2116V190.97H38.1908V178.77ZM50.7338 178.77H62.7546V190.97H50.7338V178.77ZM63.2768 178.77H75.2977V190.97H63.2768V178.77ZM75.8199 178.77H87.8407V190.97H75.8199V178.77ZM88.3629 178.77H100.394V190.97H88.3629V178.77ZM100.906 178.77H112.927V190.97H100.906V178.77ZM113.449 178.77H125.47V190.97H113.449V178.77ZM125.992 178.77H138.013V190.97H125.992V178.77ZM138.535 178.77H150.556V190.97H138.535V178.77ZM151.078 178.77H163.109V190.97H151.078V178.77ZM163.621 178.77H175.642V190.97H163.621V178.77ZM163.621 178.24V166.04H175.642V178.24H163.621ZM176.164 166.04H188.185V178.24H176.164V166.04ZM176.164 165.51V153.3H188.185V165.51H176.164ZM176.164 152.78V140.58H188.185V152.78H176.164ZM176.164 140.05V127.85H188.185V140.05H176.164ZM176.164 127.32V115.12H188.185V127.32H176.164ZM176.164 114.59V102.38H188.185V114.59H176.164ZM176.164 101.86V89.66H188.185V101.86H176.164ZM176.164 89.13V76.93H188.185V89.13H176.164ZM176.164 76.4V64.19H188.185V76.4H176.164ZM176.164 63.67V51.47H188.185V63.67H176.164ZM176.164 50.94V38.74H188.185V50.94H176.164ZM176.164 38.21V26H188.185V38.21H176.164V38.21ZM176.164 25.48V13.28H188.185V25.48H176.164ZM176.164 12.75V0.549995H188.185V12.75H176.164ZM175.642 12.75H163.621V0.549995H175.642V12.75ZM163.099 12.75H151.068V0.549995H163.099V12.75ZM150.556 12.75H138.535V0.549995H150.556V12.75ZM138.013 12.75H125.992V0.549995H138.013V12.75ZM125.47 12.75H113.449V0.549995H125.47V12.75ZM112.927 12.75H100.906V0.549995H112.927V12.75ZM100.384 12.75H88.3531V0.549995H100.384V12.75ZM87.8407 12.75H75.8199V0.549995H87.8407V12.75ZM75.2977 12.75H63.2768V0.549995H75.2977V12.75ZM62.7546 12.75H50.7338V0.549995H62.7546V12.75ZM50.2116 12.75H38.1908V0.549995H50.2116V12.75ZM37.6685 12.75H25.6477V0.549995H37.6685V12.75ZM25.1255 12.75H13.0948V0.549995H25.1255V12.75ZM25.1255 13.28V25.48H13.0948V13.28H25.1255ZM12.5825 25.48H0.561636V13.28H12.5825V25.48ZM12.5825 26.01V38.22H0.561636V26.01H12.5825ZM12.5825 38.74V50.94H0.561636V38.74H12.5825ZM12.5825 51.47V63.67H0.561636V51.47H12.5825ZM12.5825 64.2V76.41H0.561636V64.2H12.5825ZM12.5825 76.93V89.13H0.561636V76.93H12.5825ZM12.5825 89.66V101.86H0.561636V89.66H12.5825ZM12.5825 102.39V114.6H0.561636V102.39H12.5825ZM12.5825 115.12V127.32H0.561636V115.12H12.5825ZM12.5825 127.85V140.05H0.561636V127.85H12.5825ZM12.5825 140.58V152.78H0.561636V140.58H12.5825ZM12.5825 153.31V165.52H0.561636V153.31H12.5825ZM12.5825 166.04V178.24H0.561636V166.04H12.5825ZM12.5825 178.77V190.97H0.561636V178.77H12.5825ZM13.1047 178.77H25.1354V190.97H13.1047V178.77ZM25.1354 191.5V203.7H13.1047V191.5H25.1354ZM25.6576 191.5H37.6784V203.7H25.6576V191.5ZM38.2006 191.5H50.2214V203.7H38.2006V191.5V191.5ZM50.7436 191.5H62.7645V203.7H50.7436V191.5ZM63.2867 191.5H75.3075V203.7H63.2867V191.5ZM75.8297 191.5H87.8506V203.7H75.8297V191.5ZM88.3728 191.5H100.403V203.7H88.3728V191.5ZM100.916 191.5H112.937V203.7H100.916V191.5ZM113.459 191.5H125.48V203.7H113.459V191.5ZM126.002 191.5H138.023V203.7H126.002V191.5ZM138.545 191.5H150.566V203.7H138.545V191.5ZM151.088 191.5H163.119V203.7H151.088V191.5ZM163.631 191.5H175.652V203.7H163.631V191.5ZM176.174 191.5H188.195V203.7H176.174V191.5ZM176.174 190.97V178.77H188.195V190.97H176.174ZM188.717 178.77H200.738V190.97H188.717V178.77ZM188.717 178.24V166.04H200.738V178.24H188.717ZM188.717 165.51V153.3H200.738V165.51H188.717ZM188.717 152.78V140.58H200.738V152.78H188.717ZM188.717 140.05V127.85H200.738V140.05H188.717ZM188.717 127.32V115.12H200.738V127.32H188.717ZM188.717 114.59V102.38H200.738V114.59H188.717ZM188.717 101.86V89.66H200.738V101.86H188.717ZM188.717 89.13V76.93H200.738V89.13H188.717ZM188.717 76.4V64.19H200.738V76.4H188.717ZM188.717 63.67V51.47H200.738V63.67H188.717ZM188.717 50.94V38.74H200.738V50.94H188.717ZM188.717 38.21V26H200.738V38.21H188.717V38.21ZM188.717 25.48V13.28H200.738V25.48H188.717ZM12.5431 0.540001V12.74H0.522215V0.540001H12.5431ZM0.522215 191.55H12.5431V203.75H0.522215V191.55ZM188.727 203.75V191.55H200.748V203.75H188.727Z"
        fill="white" />
</svg>