<svg viewBox="0 0 97 71">
    <path
        d="M96.2284 41.4394C96.0584 41.3194 95.8483 41.2594 95.6283 41.2594C95.2583 41.2594 94.9283 41.4494 94.7383 41.7294C94.6183 41.8994 94.5583 42.1094 94.5583 42.3294C94.5583 42.4794 94.5884 42.6194 94.6384 42.7494C94.7984 43.1394 95.1883 43.4094 95.6283 43.4094C95.8483 43.4094 96.0584 43.3394 96.2284 43.2294C96.3984 43.1094 96.5384 42.9494 96.6184 42.7594C96.6684 42.6294 96.6983 42.4894 96.6983 42.3394C96.6983 42.1194 96.6283 41.9094 96.5183 41.7394C96.4383 41.6294 96.3384 41.5294 96.2284 41.4494V41.4394Z"
        fill="white" />
    <path
        d="M84.8583 19.7195C84.3383 19.7195 83.9083 20.0895 83.8083 20.5795C83.7983 20.6495 83.7883 20.7195 83.7883 20.7995C83.7883 21.3895 84.2683 21.8795 84.8683 21.8795C85.4683 21.8795 85.9483 21.3995 85.9483 20.7995C85.9483 20.7295 85.9483 20.6495 85.9283 20.5795C85.8283 20.0895 85.3883 19.7195 84.8683 19.7195H84.8583Z"
        fill="white" />
    <path
        d="M84.8583 11.0995C85.1383 11.0995 85.3783 10.9895 85.5783 10.8195C85.0283 10.3895 84.4683 9.96947 83.8883 9.57947C83.8283 9.71947 83.7883 9.85945 83.7883 10.0195C83.7883 10.6095 84.2683 11.0995 84.8683 11.0995H84.8583Z"
        fill="white" />
    <path
        d="M79.4683 14.3295C78.8683 14.3295 78.3883 14.8095 78.3883 15.4095C78.3883 16.0095 78.8683 16.4895 79.4683 16.4895C80.0683 16.4895 80.5483 16.0095 80.5483 15.4095C80.5483 14.8095 80.0683 14.3295 79.4683 14.3295V14.3295Z"
        fill="white" />
    <path
        d="M90.2384 16.4894C90.5384 16.4894 90.8184 16.3594 91.0084 16.1594C90.5584 15.5994 90.0884 15.0594 89.6084 14.5394C89.3384 14.7394 89.1584 15.0494 89.1584 15.4094C89.1584 15.9994 89.6384 16.4894 90.2384 16.4894V16.4894Z"
        fill="white" />
    <path
        d="M74.2984 19.7395C74.2284 19.7295 74.1584 19.7195 74.0784 19.7195C73.9284 19.7195 73.7884 19.7495 73.6584 19.7995C73.3384 19.9395 73.0984 20.2195 73.0184 20.5695C73.0084 20.6395 72.9984 20.7095 72.9984 20.7895C72.9984 21.2395 73.2684 21.6195 73.6584 21.7795C73.7884 21.8295 73.9284 21.8595 74.0784 21.8595C74.1484 21.8595 74.2284 21.8595 74.2984 21.8395C74.7884 21.7395 75.1584 21.3095 75.1584 20.7895C75.1584 20.7195 75.1584 20.6395 75.1384 20.5695C75.0484 20.1495 74.7184 19.8195 74.2984 19.7295V19.7395Z"
        fill="white" />
    <path
        d="M74.2984 8.96947C74.2284 8.95947 74.1584 8.94946 74.0784 8.94946C73.9284 8.94946 73.7884 8.97946 73.6584 9.02946C73.2684 9.18946 72.9984 9.57945 72.9984 10.0195C72.9984 10.4595 73.2684 10.8495 73.6584 11.0095C73.7884 11.0595 73.9284 11.0895 74.0784 11.0895C74.1484 11.0895 74.2284 11.0895 74.2984 11.0695C74.7884 10.9695 75.1584 10.5295 75.1584 10.0095C75.1584 9.48946 74.7884 9.05946 74.2984 8.95946V8.96947Z"
        fill="white" />
    <path
        d="M84.8583 41.2594C84.4883 41.2594 84.1583 41.4494 83.9683 41.7294C83.8483 41.8994 83.7883 42.1094 83.7883 42.3294C83.7883 42.4794 83.8183 42.6194 83.8683 42.7494C84.0283 43.1394 84.4183 43.4094 84.8583 43.4094C85.2983 43.4094 85.6883 43.1394 85.8483 42.7494C85.8983 42.6194 85.9283 42.4794 85.9283 42.3294C85.9283 42.1094 85.8583 41.8994 85.7483 41.7294C85.5583 41.4394 85.2283 41.2594 84.8583 41.2594V41.2594Z"
        fill="white" />
    <path
        d="M95.6183 32.6394C95.8383 32.6394 96.0483 32.5694 96.2183 32.4594C96.5083 32.2694 96.6883 31.9394 96.6883 31.5694C96.6883 31.1994 96.4983 30.8694 96.2183 30.6794C96.0483 30.5594 95.8383 30.4994 95.6183 30.4994C95.0183 30.4994 94.5383 30.9794 94.5383 31.5794C94.5383 32.1794 95.0183 32.6594 95.6183 32.6594V32.6394Z"
        fill="white" />
    <path
        d="M84.8583 30.4894C84.2583 30.4894 83.7783 30.9694 83.7783 31.5694C83.7783 32.1694 84.2583 32.6494 84.8583 32.6494C85.4583 32.6494 85.9383 32.1694 85.9383 31.5694C85.9383 30.9694 85.4583 30.4894 84.8583 30.4894Z"
        fill="white" />
    <path
        d="M79.4683 35.8694C78.8683 35.8694 78.3883 36.3494 78.3883 36.9494C78.3883 37.5494 78.8683 38.0294 79.4683 38.0294C80.0683 38.0294 80.5483 37.5494 80.5483 36.9494C80.5483 36.3494 80.0683 35.8694 79.4683 35.8694Z"
        fill="white" />
    <path
        d="M90.2384 35.8694C89.6384 35.8694 89.1584 36.3494 89.1584 36.9494C89.1584 37.5494 89.6384 38.0294 90.2384 38.0294C90.8384 38.0294 91.3184 37.5494 91.3184 36.9494C91.3184 36.3494 90.8384 35.8694 90.2384 35.8694Z"
        fill="white" />
    <path
        d="M79.4683 25.0995C78.8683 25.0995 78.3883 25.5795 78.3883 26.1795C78.3883 26.7795 78.8683 27.2595 79.4683 27.2595C80.0683 27.2595 80.5483 26.7795 80.5483 26.1795C80.5483 25.5795 80.0683 25.0995 79.4683 25.0995Z"
        fill="white" />
    <path
        d="M90.2384 25.0995C89.6384 25.0995 89.1584 25.5795 89.1584 26.1795C89.1584 26.7795 89.6384 27.2595 90.2384 27.2595C90.8384 27.2595 91.3184 26.7795 91.3184 26.1795C91.3184 25.5795 90.8384 25.0995 90.2384 25.0995Z"
        fill="white" />
    <path
        d="M74.2983 41.2794C74.2283 41.2694 74.1583 41.2594 74.0783 41.2594C73.9283 41.2594 73.7883 41.2894 73.6583 41.3394C73.4683 41.4194 73.2983 41.5594 73.1883 41.7294C73.0683 41.8994 73.0083 42.1094 73.0083 42.3294C73.0083 42.4794 73.0383 42.6194 73.0883 42.7494C73.1983 43.0094 73.4083 43.2094 73.6583 43.3194C73.7883 43.3694 73.9283 43.3994 74.0783 43.3994C74.1483 43.3994 74.2283 43.3994 74.2983 43.3794C74.6483 43.3094 74.9383 43.0694 75.0683 42.7394C75.1183 42.6094 75.1483 42.4694 75.1483 42.3194C75.1483 42.0994 75.0783 41.8894 74.9683 41.7194C74.8183 41.4894 74.5683 41.3194 74.2883 41.2694L74.2983 41.2794Z"
        fill="white" />
    <path
        d="M74.2984 30.5094C74.2284 30.4994 74.1584 30.4894 74.0784 30.4894C73.9284 30.4894 73.7884 30.5194 73.6584 30.5694C73.2684 30.7294 72.9984 31.1194 72.9984 31.5594C72.9984 31.9994 73.2684 32.3894 73.6584 32.5494C73.7884 32.5994 73.9284 32.6294 74.0784 32.6294C74.1484 32.6294 74.2284 32.6294 74.2984 32.6094C74.7884 32.5094 75.1584 32.0694 75.1584 31.5494C75.1584 31.0294 74.7884 30.5994 74.2984 30.4994V30.5094Z"
        fill="white" />
    <path
        d="M85.4583 62.9795C85.3483 62.8995 85.2183 62.8495 85.0683 62.8195C84.9983 62.8095 84.9283 62.7994 84.8483 62.7994C84.7683 62.7994 84.6983 62.7995 84.6283 62.8195C84.4883 62.8495 84.3583 62.8995 84.2483 62.9795C84.1883 63.0195 84.1383 63.0594 84.0883 63.1094C83.9383 63.2594 83.8383 63.4394 83.7983 63.6494C83.7883 63.7194 83.7783 63.7894 83.7783 63.8694C83.7783 64.1394 83.8783 64.3894 84.0483 64.5794C84.3783 64.3494 84.7183 64.1194 85.0383 63.8694C85.2883 63.6894 85.5183 63.4894 85.7583 63.2994C85.7183 63.2294 85.6683 63.1594 85.6083 63.1094C85.5583 63.0594 85.5083 63.0195 85.4483 62.9795H85.4583Z"
        fill="white" />
    <path
        d="M84.8583 52.0294C84.2583 52.0294 83.7783 52.5094 83.7783 53.1094C83.7783 53.7094 84.2583 54.1894 84.8583 54.1894C85.4583 54.1894 85.9383 53.7094 85.9383 53.1094C85.9383 52.5094 85.4583 52.0294 84.8583 52.0294Z"
        fill="white" />
    <path
        d="M79.4683 57.4094C78.8683 57.4094 78.3883 57.8894 78.3883 58.4894C78.3883 59.0894 78.8683 59.5694 79.4683 59.5694C80.0683 59.5694 80.5483 59.0894 80.5483 58.4894C80.5483 57.8894 80.0683 57.4094 79.4683 57.4094Z"
        fill="white" />
    <path
        d="M90.2384 57.4094C89.6384 57.4094 89.1584 57.8894 89.1584 58.4894C89.1584 58.9494 89.4484 59.3394 89.8484 59.4894C90.2984 58.9894 90.7384 58.4694 91.1584 57.9394C90.9684 57.6294 90.6284 57.4094 90.2384 57.4094Z"
        fill="white" />
    <path
        d="M79.4683 46.6394C78.8683 46.6394 78.3883 47.1194 78.3883 47.7194C78.3883 48.3194 78.8683 48.7994 79.4683 48.7994C80.0683 48.7994 80.5483 48.3194 80.5483 47.7194C80.5483 47.1194 80.0683 46.6394 79.4683 46.6394Z"
        fill="white" />
    <path
        d="M90.2384 46.6394C89.6384 46.6394 89.1584 47.1194 89.1584 47.7194C89.1584 48.3194 89.6384 48.7994 90.2384 48.7994C90.8384 48.7994 91.3184 48.3194 91.3184 47.7194C91.3184 47.1194 90.8384 46.6394 90.2384 46.6394Z"
        fill="white" />
    <path
        d="M74.8483 63.1094C74.8483 63.1094 74.7483 63.0195 74.6883 62.9795C74.5783 62.8995 74.4483 62.8495 74.3083 62.8195C74.2383 62.8095 74.1683 62.7994 74.0883 62.7994C74.0083 62.7994 73.9383 62.7995 73.8683 62.8195C73.7983 62.8295 73.7283 62.8595 73.6683 62.8795C73.6083 62.9095 73.5383 62.9395 73.4883 62.9795C73.4383 63.0195 73.3783 63.0594 73.3283 63.1094C73.1783 63.2594 73.0783 63.4394 73.0383 63.6494C73.0283 63.7194 73.0183 63.7894 73.0183 63.8694C73.0183 64.3194 73.2883 64.6994 73.6783 64.8594C73.8083 64.9094 73.9483 64.9395 74.0983 64.9395C74.1683 64.9395 74.2483 64.9394 74.3183 64.9194C74.8083 64.8194 75.1783 64.3894 75.1783 63.8694C75.1783 63.7994 75.1783 63.7194 75.1583 63.6494C75.1183 63.4394 75.0083 63.2494 74.8683 63.1094H74.8483Z"
        fill="white" />
    <path
        d="M74.2984 52.0494C74.2284 52.0394 74.1584 52.0294 74.0784 52.0294C73.9284 52.0294 73.7884 52.0594 73.6584 52.1094C73.2684 52.2694 72.9984 52.6594 72.9984 53.0994C72.9984 53.5394 73.2684 53.9294 73.6584 54.0894C73.7884 54.1394 73.9284 54.1694 74.0784 54.1694C74.1484 54.1694 74.2284 54.1694 74.2984 54.1494C74.7884 54.0494 75.1584 53.6094 75.1584 53.0894C75.1584 52.5694 74.7884 52.1394 74.2984 52.0394V52.0494Z"
        fill="white" />
    <path
        d="M63.3184 19.7195C62.7984 19.7195 62.3684 20.0895 62.2684 20.5795C62.2584 20.6495 62.2484 20.7195 62.2484 20.7995C62.2484 21.3895 62.7284 21.8795 63.3284 21.8795C63.9284 21.8795 64.4084 21.3995 64.4084 20.7995C64.4084 20.7295 64.4084 20.6495 64.3884 20.5795C64.2884 20.0895 63.8484 19.7195 63.3284 19.7195H63.3184Z"
        fill="white" />
    <path
        d="M63.3184 8.94946C62.7184 8.94946 62.2384 9.42946 62.2384 10.0295C62.2384 10.6295 62.7184 11.1095 63.3184 11.1095C63.9184 11.1095 64.3984 10.6295 64.3984 10.0295C64.3984 9.42946 63.9184 8.94946 63.3184 8.94946Z"
        fill="white" />
    <path
        d="M57.9284 14.3295C57.3284 14.3295 56.8484 14.8095 56.8484 15.4095C56.8484 16.0095 57.3284 16.4895 57.9284 16.4895C58.5284 16.4895 59.0084 16.0095 59.0084 15.4095C59.0084 14.8095 58.5284 14.3295 57.9284 14.3295V14.3295Z"
        fill="white" />
    <path
        d="M68.6984 14.3295C68.0984 14.3295 67.6184 14.8095 67.6184 15.4095C67.6184 16.0095 68.0984 16.4895 68.6984 16.4895C69.2984 16.4895 69.7784 16.0095 69.7784 15.4095C69.7784 14.8095 69.2984 14.3295 68.6984 14.3295V14.3295Z"
        fill="white" />
    <path
        d="M56.8684 4.81937C56.9584 5.32937 57.3984 5.70937 57.9284 5.70937C58.5184 5.70937 59.0084 5.22936 59.0084 4.62936C59.0084 4.53936 58.9884 4.44938 58.9684 4.35938C58.2584 4.48937 57.5584 4.63937 56.8684 4.80937V4.81937Z"
        fill="white" />
    <path
        d="M67.8984 3.91943C67.7284 4.10943 67.6184 4.35943 67.6184 4.63943C67.6184 5.22943 68.0984 5.71944 68.6984 5.71944C69.2984 5.71944 69.7784 5.23943 69.7784 4.63943C69.7784 4.44943 69.7284 4.26944 69.6384 4.10944C69.0684 4.02944 68.4884 3.96943 67.9084 3.91943H67.8984Z"
        fill="white" />
    <path
        d="M53.1484 19.8995C52.9784 19.7795 52.7684 19.7195 52.5484 19.7195C52.3984 19.7195 52.2584 19.7495 52.1284 19.7995C51.8084 19.9395 51.5684 20.2195 51.4884 20.5695C51.4784 20.6395 51.4684 20.7095 51.4684 20.7895C51.4684 21.2395 51.7384 21.6195 52.1284 21.7795C52.2584 21.8295 52.3984 21.8595 52.5484 21.8595C52.7684 21.8595 52.9784 21.7895 53.1484 21.6795C53.4384 21.4895 53.6184 21.1595 53.6184 20.7895C53.6184 20.7195 53.6184 20.6395 53.5984 20.5695C53.5384 20.2895 53.3784 20.0495 53.1484 19.8895V19.8995Z"
        fill="white" />
    <path
        d="M53.1484 9.12946C52.9784 9.00946 52.7684 8.94946 52.5484 8.94946C52.3984 8.94946 52.2584 8.97946 52.1284 9.02946C51.7384 9.18946 51.4684 9.57945 51.4684 10.0195C51.4684 10.4595 51.7384 10.8495 52.1284 11.0095C52.2584 11.0595 52.3984 11.0895 52.5484 11.0895C52.7684 11.0895 52.9784 11.0195 53.1484 10.9095C53.4384 10.7195 53.6184 10.3895 53.6184 10.0195C53.6184 9.64945 53.4284 9.31946 53.1484 9.12946V9.12946Z"
        fill="white" />
    <path
        d="M63.3184 41.2594C62.9484 41.2594 62.6184 41.4494 62.4284 41.7294C62.3084 41.8994 62.2484 42.1094 62.2484 42.3294C62.2484 42.4794 62.2784 42.6194 62.3284 42.7494C62.4884 43.1394 62.8784 43.4094 63.3184 43.4094C63.7584 43.4094 64.1484 43.1394 64.3084 42.7494C64.3584 42.6194 64.3884 42.4794 64.3884 42.3294C64.3884 42.1094 64.3184 41.8994 64.2084 41.7294C64.0184 41.4394 63.6884 41.2594 63.3184 41.2594Z"
        fill="white" />
    <path
        d="M63.3184 30.4894C62.7184 30.4894 62.2384 30.9694 62.2384 31.5694C62.2384 32.1694 62.7184 32.6494 63.3184 32.6494C63.9184 32.6494 64.3984 32.1694 64.3984 31.5694C64.3984 30.9694 63.9184 30.4894 63.3184 30.4894Z"
        fill="white" />
    <path
        d="M57.9284 35.8694C57.3284 35.8694 56.8484 36.3494 56.8484 36.9494C56.8484 37.5494 57.3284 38.0294 57.9284 38.0294C58.5284 38.0294 59.0084 37.5494 59.0084 36.9494C59.0084 36.3494 58.5284 35.8694 57.9284 35.8694Z"
        fill="white" />
    <path
        d="M68.6984 35.8694C68.0984 35.8694 67.6184 36.3494 67.6184 36.9494C67.6184 37.5494 68.0984 38.0294 68.6984 38.0294C69.2984 38.0294 69.7784 37.5494 69.7784 36.9494C69.7784 36.3494 69.2984 35.8694 68.6984 35.8694Z"
        fill="white" />
    <path
        d="M57.9284 25.0995C57.3284 25.0995 56.8484 25.5795 56.8484 26.1795C56.8484 26.7795 57.3284 27.2595 57.9284 27.2595C58.5284 27.2595 59.0084 26.7795 59.0084 26.1795C59.0084 25.5795 58.5284 25.0995 57.9284 25.0995Z"
        fill="white" />
    <path
        d="M68.6984 25.0995C68.0984 25.0995 67.6184 25.5795 67.6184 26.1795C67.6184 26.7795 68.0984 27.2595 68.6984 27.2595C69.2984 27.2595 69.7784 26.7795 69.7784 26.1795C69.7784 25.5795 69.2984 25.0995 68.6984 25.0995Z"
        fill="white" />
    <path
        d="M53.1484 41.4394C52.9784 41.3194 52.7684 41.2594 52.5484 41.2594C52.3984 41.2594 52.2584 41.2894 52.1284 41.3394C51.9384 41.4194 51.7684 41.5594 51.6584 41.7294C51.5384 41.8994 51.4784 42.1094 51.4784 42.3294C51.4784 42.4794 51.5084 42.6194 51.5584 42.7494C51.6684 43.0094 51.8784 43.2094 52.1284 43.3194C52.2584 43.3694 52.3984 43.3994 52.5484 43.3994C52.7684 43.3994 52.9784 43.3294 53.1484 43.2194C53.3184 43.1094 53.4584 42.9394 53.5384 42.7494C53.5884 42.6194 53.6184 42.4794 53.6184 42.3294C53.6184 42.1094 53.5484 41.8994 53.4384 41.7294C53.3584 41.6194 53.2584 41.5194 53.1484 41.4394V41.4394Z"
        fill="white" />
    <path
        d="M53.1484 30.6694C52.9784 30.5494 52.7684 30.4894 52.5484 30.4894C52.3984 30.4894 52.2584 30.5194 52.1284 30.5694C51.7384 30.7294 51.4684 31.1194 51.4684 31.5594C51.4684 31.9994 51.7384 32.3894 52.1284 32.5494C52.2584 32.5994 52.3984 32.6294 52.5484 32.6294C52.7684 32.6294 52.9784 32.5594 53.1484 32.4494C53.4384 32.2594 53.6184 31.9294 53.6184 31.5594C53.6184 31.1894 53.4284 30.8594 53.1484 30.6694Z"
        fill="white" />
    <path
        d="M64.0784 63.1094C64.0784 63.1094 63.9784 63.0195 63.9184 62.9795C63.8084 62.8995 63.6784 62.8495 63.5284 62.8195C63.4584 62.8095 63.3884 62.7994 63.3084 62.7994C63.2284 62.7994 63.1584 62.7995 63.0884 62.8195C62.9484 62.8495 62.8184 62.8995 62.6984 62.9795C62.6384 63.0195 62.5884 63.0594 62.5384 63.1094C62.3884 63.2594 62.2884 63.4394 62.2484 63.6494C62.2384 63.7194 62.2284 63.7894 62.2284 63.8694C62.2284 64.4594 62.7084 64.9494 63.3084 64.9494C63.9084 64.9494 64.3884 64.4694 64.3884 63.8694C64.3884 63.7994 64.3884 63.7194 64.3684 63.6494C64.3284 63.4394 64.2184 63.2494 64.0784 63.1094Z"
        fill="white" />
    <path
        d="M63.3184 52.0294C62.7184 52.0294 62.2384 52.5094 62.2384 53.1094C62.2384 53.7094 62.7184 54.1894 63.3184 54.1894C63.9184 54.1894 64.3984 53.7094 64.3984 53.1094C64.3984 52.5094 63.9184 52.0294 63.3184 52.0294Z"
        fill="white" />
    <path
        d="M57.9284 57.4094C57.3284 57.4094 56.8484 57.8894 56.8484 58.4894C56.8484 59.0894 57.3284 59.5694 57.9284 59.5694C58.5284 59.5694 59.0084 59.0894 59.0084 58.4894C59.0084 57.8894 58.5284 57.4094 57.9284 57.4094Z"
        fill="white" />
    <path
        d="M68.6984 57.4094C68.0984 57.4094 67.6184 57.8894 67.6184 58.4894C67.6184 59.0894 68.0984 59.5694 68.6984 59.5694C69.2984 59.5694 69.7784 59.0894 69.7784 58.4894C69.7784 57.8894 69.2984 57.4094 68.6984 57.4094Z"
        fill="white" />
    <path
        d="M57.9284 46.6394C57.3284 46.6394 56.8484 47.1194 56.8484 47.7194C56.8484 48.3194 57.3284 48.7994 57.9284 48.7994C58.5284 48.7994 59.0084 48.3194 59.0084 47.7194C59.0084 47.1194 58.5284 46.6394 57.9284 46.6394Z"
        fill="white" />
    <path
        d="M68.6984 46.6394C68.0984 46.6394 67.6184 47.1194 67.6184 47.7194C67.6184 48.3194 68.0984 48.7994 68.6984 48.7994C69.2984 48.7994 69.7784 48.3194 69.7784 47.7194C69.7784 47.1194 69.2984 46.6394 68.6984 46.6394Z"
        fill="white" />
    <path
        d="M53.3084 63.1094C53.3084 63.1094 53.2084 63.0195 53.1484 62.9795C53.0384 62.8995 52.9084 62.8495 52.7684 62.8195C52.6984 62.8095 52.6284 62.7994 52.5484 62.7994C52.4684 62.7994 52.3984 62.7995 52.3284 62.8195C52.2584 62.8295 52.1884 62.8595 52.1284 62.8795C52.0684 62.9095 51.9984 62.9395 51.9484 62.9795C51.8884 63.0195 51.8384 63.0594 51.7884 63.1094C51.6384 63.2594 51.5384 63.4394 51.4984 63.6494C51.4884 63.7194 51.4784 63.7894 51.4784 63.8694C51.4784 64.3194 51.7484 64.6994 52.1384 64.8594C52.2684 64.9094 52.4084 64.9395 52.5584 64.9395C52.7784 64.9395 52.9884 64.8695 53.1584 64.7595C53.4484 64.5695 53.6284 64.2394 53.6284 63.8694C53.6284 63.7994 53.6284 63.7194 53.6084 63.6494C53.5684 63.4394 53.4584 63.2494 53.3184 63.1094H53.3084Z"
        fill="white" />
    <path
        d="M53.1484 52.2094C52.9784 52.0894 52.7684 52.0294 52.5484 52.0294C52.3984 52.0294 52.2584 52.0594 52.1284 52.1094C51.7384 52.2694 51.4684 52.6594 51.4684 53.0994C51.4684 53.5394 51.7384 53.9294 52.1284 54.0894C52.2584 54.1394 52.3984 54.1694 52.5484 54.1694C52.7684 54.1694 52.9784 54.0994 53.1484 53.9894C53.4384 53.7994 53.6184 53.4694 53.6184 53.0994C53.6184 52.7294 53.4284 52.3994 53.1484 52.2094Z"
        fill="white" />
    <path
        d="M57.9284 68.1794C57.3284 68.1794 56.8484 68.6595 56.8484 69.2595C56.8484 69.3295 56.8484 69.3994 56.8684 69.4594C57.5084 69.6194 58.1484 69.7595 58.7984 69.8795C58.9284 69.6995 58.9984 69.4895 58.9984 69.2495C58.9984 68.6495 58.5184 68.1694 57.9184 68.1694L57.9284 68.1794Z"
        fill="white" />
    <path
        d="M68.6984 68.1794C68.0984 68.1794 67.6184 68.6595 67.6184 69.2595C67.6184 69.7895 67.9984 70.2295 68.4984 70.3195C68.7184 70.2995 68.9284 70.2594 69.1384 70.2394C69.5084 70.0694 69.7684 69.6995 69.7684 69.2595C69.7684 68.6595 69.2884 68.1794 68.6884 68.1794H68.6984Z"
        fill="white" />
    <path
        d="M41.7784 19.7195C41.2584 19.7195 40.8284 20.0895 40.7284 20.5795C40.7184 20.6495 40.7084 20.7195 40.7084 20.7995C40.7084 21.3895 41.1884 21.8795 41.7884 21.8795C42.3884 21.8795 42.8684 21.3995 42.8684 20.7995C42.8684 20.7295 42.8684 20.6495 42.8484 20.5795C42.7484 20.0895 42.3084 19.7195 41.7884 19.7195H41.7784Z"
        fill="white" />
    <path
        d="M47.1584 14.3295C46.5584 14.3295 46.0784 14.8095 46.0784 15.4095C46.0784 16.0095 46.5584 16.4895 47.1584 16.4895C47.7584 16.4895 48.2384 16.0095 48.2384 15.4095C48.2384 14.8095 47.7584 14.3295 47.1584 14.3295V14.3295Z"
        fill="white" />
    <path
        d="M41.7784 41.2594C41.4084 41.2594 41.0784 41.4494 40.8884 41.7294C40.7684 41.8994 40.7084 42.1094 40.7084 42.3294C40.7084 42.4794 40.7384 42.6194 40.7884 42.7494C40.9484 43.1394 41.3384 43.4094 41.7784 43.4094C42.2184 43.4094 42.6084 43.1394 42.7684 42.7494C42.8184 42.6194 42.8484 42.4794 42.8484 42.3294C42.8484 42.1094 42.7784 41.8994 42.6684 41.7294C42.4784 41.4394 42.1484 41.2594 41.7784 41.2594Z"
        fill="white" />
    <path
        d="M41.7784 30.4894C41.1784 30.4894 40.6984 30.9694 40.6984 31.5694C40.6984 32.1694 41.1784 32.6494 41.7784 32.6494C42.3784 32.6494 42.8584 32.1694 42.8584 31.5694C42.8584 30.9694 42.3784 30.4894 41.7784 30.4894Z"
        fill="white" />
    <path
        d="M36.3984 35.8694C35.7984 35.8694 35.3184 36.3494 35.3184 36.9494C35.3184 37.5494 35.7984 38.0294 36.3984 38.0294C36.9984 38.0294 37.4784 37.5494 37.4784 36.9494C37.4784 36.3494 36.9984 35.8694 36.3984 35.8694Z"
        fill="white" />
    <path
        d="M47.1584 35.8694C46.5584 35.8694 46.0784 36.3494 46.0784 36.9494C46.0784 37.5494 46.5584 38.0294 47.1584 38.0294C47.7584 38.0294 48.2384 37.5494 48.2384 36.9494C48.2384 36.3494 47.7584 35.8694 47.1584 35.8694Z"
        fill="white" />
    <path
        d="M36.3984 25.0995C35.7984 25.0995 35.3184 25.5795 35.3184 26.1795C35.3184 26.7795 35.7984 27.2595 36.3984 27.2595C36.9984 27.2595 37.4784 26.7795 37.4784 26.1795C37.4784 25.5795 36.9984 25.0995 36.3984 25.0995Z"
        fill="white" />
    <path
        d="M47.1584 25.0995C46.5584 25.0995 46.0784 25.5795 46.0784 26.1795C46.0784 26.7795 46.5584 27.2595 47.1584 27.2595C47.7584 27.2595 48.2384 26.7795 48.2384 26.1795C48.2384 25.5795 47.7584 25.0995 47.1584 25.0995Z"
        fill="white" />
    <path
        d="M41.7784 52.0294C41.1784 52.0294 40.6984 52.5094 40.6984 53.1094C40.6984 53.7094 41.1784 54.1894 41.7784 54.1894C42.3784 54.1894 42.8584 53.7094 42.8584 53.1094C42.8584 52.5094 42.3784 52.0294 41.7784 52.0294Z"
        fill="white" />
    <path
        d="M47.1584 57.4094C46.5584 57.4094 46.0784 57.8894 46.0784 58.4894C46.0784 59.0894 46.5584 59.5694 47.1584 59.5694C47.7584 59.5694 48.2384 59.0894 48.2384 58.4894C48.2384 57.8894 47.7584 57.4094 47.1584 57.4094Z"
        fill="white" />
    <path
        d="M36.3984 46.6394C35.7984 46.6394 35.3184 47.1194 35.3184 47.7194C35.3184 48.3194 35.7984 48.7994 36.3984 48.7994C36.9984 48.7994 37.4784 48.3194 37.4784 47.7194C37.4784 47.1194 36.9984 46.6394 36.3984 46.6394Z"
        fill="white" />
    <path
        d="M47.1584 46.6394C46.5584 46.6394 46.0784 47.1194 46.0784 47.7194C46.0784 48.3194 46.5584 48.7994 47.1584 48.7994C47.7584 48.7994 48.2384 48.3194 48.2384 47.7194C48.2384 47.1194 47.7584 46.6394 47.1584 46.6394Z"
        fill="white" />
    <path
        d="M61.2165 37.642C63.8062 22.0324 53.2515 7.27893 37.6419 4.68918C22.0324 2.09943 7.2789 12.6541 4.68916 28.2637C2.09941 43.8733 12.654 58.6267 28.2636 61.2165C43.8732 63.8062 58.6267 53.2516 61.2165 37.642Z"
        fill="url(#paint0_radial_92_934)" />
    <path style="mix-blend-mode:overlay" opacity="0.5"
        d="M16.3583 31.6194C11.1783 28.3994 9.86828 21.1294 13.4483 15.3894C17.0183 9.64944 24.1183 7.60946 29.2983 10.8295C34.4783 14.0495 35.7883 21.3195 32.2083 27.0595C28.6383 32.7995 21.5383 34.8394 16.3583 31.6194V31.6194Z"
        fill="url(#paint1_radial_92_934)" />
    <defs>
        <radialGradient id="paint0_radial_92_934" cx="0" cy="0" r="1" gradientUnits="userSpaceOnUse"
            gradientTransform="translate(19.3677 21.4033) rotate(-15.18) scale(54.73 54.73)">
            <stop stop-color="#F8EEED" />
            <stop offset="0.24" stop-color="#F2E8E9" />
            <stop offset="0.34" stop-color="#ECE0E0" />
            <stop offset="0.5" stop-color="#DDCBC7" />
            <stop offset="0.65" stop-color="#CCB5AD" />
            <stop offset="1" stop-color="#9B887A" />
        </radialGradient>
        <radialGradient id="paint1_radial_92_934" cx="0" cy="0" r="1" gradientUnits="userSpaceOnUse"
            gradientTransform="translate(14.9974 12.1335) rotate(121.89) scale(11.964 10.967)">
            <stop stop-color="white" />
            <stop offset="0.45" stop-color="white" stop-opacity="0.34" />
            <stop offset="0.69" stop-color="white" stop-opacity="0" />
        </radialGradient>
    </defs>
</svg>