<svg viewBox="0 0 80 75">
    <path
        d="M79.5311 7.64299C79.582 7.59215 79.6385 7.53566 79.6893 7.47917L63.9062 0C63.7707 0.141223 63.6351 0.271149 63.4995 0.395425C63.4656 0.423669 63.4374 0.457563 63.4035 0.485807C63.2623 0.610084 63.1154 0.728711 62.9742 0.83604C62.7934 0.971614 62.6183 1.09024 62.4375 1.19757C62.4036 1.22017 62.3697 1.23711 62.3302 1.25406C62.1833 1.33879 62.0364 1.41788 61.8896 1.48567C61.7935 1.53086 61.6975 1.5704 61.6071 1.60429C61.545 1.62689 61.4885 1.65513 61.4264 1.67773C61.3134 1.71727 61.2004 1.75117 61.0818 1.78506C61.0366 1.79636 60.9914 1.8133 60.9462 1.8246C60.788 1.86414 60.6242 1.90369 60.4604 1.93193C60.4265 1.93758 60.3926 1.93758 60.3644 1.94323C60.2344 1.96582 60.1102 1.98277 59.9802 1.99407C59.7599 2.01666 59.5396 2.02231 59.3137 2.02796C59.2572 2.02796 59.2007 2.02796 59.1442 2.02796C58.9578 2.02796 58.7657 2.01666 58.5793 2.00537C58.5341 2.00537 58.4946 2.00537 58.4494 1.99972C58.2234 1.98277 57.9975 1.95453 57.7715 1.92628C57.715 1.92063 57.6585 1.90934 57.602 1.90369C57.41 1.87544 57.2236 1.8472 57.0315 1.8133C56.9863 1.80765 56.9355 1.79636 56.8903 1.79071C56.5061 1.72292 56.1164 1.64384 55.7266 1.56475C55.3425 1.48567 54.9527 1.41223 54.5629 1.33879C54.546 1.33879 54.529 1.33315 54.5177 1.3275C54.4895 1.3275 54.4612 1.3162 54.4273 1.3162C54.2296 1.28231 54.0376 1.24841 53.8398 1.22017C53.7777 1.20887 53.7212 1.20322 53.6591 1.19192C53.4218 1.15803 53.1846 1.13543 52.953 1.11284C52.9134 1.11284 52.8795 1.11284 52.84 1.10719C52.6366 1.09024 52.4389 1.08459 52.2356 1.08459C52.1734 1.08459 52.1113 1.08459 52.0491 1.08459C51.8119 1.08459 51.5746 1.09589 51.3374 1.11849H51.3261C51.1566 1.13543 50.9871 1.15803 50.812 1.19192C50.7725 1.19757 50.7329 1.20887 50.6934 1.22017C50.5578 1.24841 50.4223 1.27666 50.2923 1.31055C50.2302 1.3275 50.1681 1.35009 50.1003 1.36704C49.9873 1.40093 49.88 1.43483 49.767 1.47437C49.6992 1.49696 49.6258 1.53086 49.558 1.5591C49.4789 1.593 49.3998 1.61559 49.3207 1.65513C49.2981 1.66643 49.2812 1.67773 49.2586 1.68903C49.1004 1.76246 48.9422 1.8472 48.7841 1.93758C48.7445 1.96017 48.705 1.97712 48.6598 2.00537C48.4621 2.12399 48.27 2.25392 48.0723 2.40079C48.061 2.40644 48.0497 2.41209 48.0384 2.42339C47.8915 2.53637 47.7447 2.65499 47.6034 2.78492C47.5696 2.81316 47.5357 2.84706 47.5018 2.88095C47.4114 2.96568 47.321 3.04477 47.2306 3.13515C47.1741 3.19164 47.1176 3.24813 47.0611 3.31027C46.886 3.49668 46.7222 3.6831 46.5697 3.86951H46.564C46.564 3.86951 46.5414 3.90905 46.5245 3.926C46.372 4.11806 46.2308 4.31577 46.1008 4.50784C46.0895 4.53043 46.0726 4.54738 46.0556 4.56998C46.0217 4.62082 45.9991 4.67166 45.9653 4.7225C45.8749 4.86937 45.7845 5.02189 45.7054 5.17441C45.6828 5.21395 45.6602 5.24785 45.6433 5.28739C45.6263 5.32693 45.6094 5.36647 45.5924 5.40037C45.4964 5.59808 45.406 5.79579 45.3269 5.9935C45.31 6.0274 45.293 6.06694 45.2761 6.10083C45.2704 6.11778 45.2648 6.13473 45.2591 6.14602C45.2309 6.22511 45.2027 6.30984 45.1744 6.38893C45.1349 6.50191 45.0953 6.62053 45.0614 6.73351C45.0388 6.81824 45.0162 6.90298 44.9936 6.99336C44.971 7.0781 44.9485 7.15718 44.9259 7.24191C44.9202 7.27016 44.9146 7.29275 44.9089 7.321C44.8694 7.47917 44.8411 7.64299 44.8129 7.80681C44.8016 7.86894 44.7903 7.93108 44.779 7.99887C44.7451 8.22483 44.7112 8.45078 44.6886 8.67674C44.6886 8.71628 44.6829 8.76147 44.6773 8.80102C44.6604 8.98743 44.6434 9.17949 44.6321 9.36591C44.6321 9.45064 44.6265 9.52973 44.6208 9.61446C44.6152 9.76698 44.6095 9.91385 44.6095 10.0664C44.6095 10.1568 44.6095 10.2471 44.6095 10.3375C44.6095 10.4787 44.6095 10.6256 44.6095 10.7668C44.6095 10.8572 44.6095 10.9533 44.6152 11.0436C44.6152 11.1905 44.6265 11.3374 44.6321 11.4843C44.6321 11.5746 44.6378 11.6594 44.6434 11.7498C44.6491 11.9136 44.6604 12.0717 44.6717 12.2356C44.6717 12.309 44.6773 12.3768 44.683 12.4502C44.6943 12.6762 44.7112 12.9021 44.7281 13.1281C44.7451 13.354 44.7564 13.58 44.7733 13.8003C44.7733 13.8681 44.779 13.9359 44.7846 14.0037C44.7959 14.1618 44.8016 14.3257 44.8129 14.4838C44.8129 14.5686 44.8185 14.6533 44.8242 14.738C44.8298 14.8849 44.8355 15.0261 44.8411 15.1673C44.8411 15.2577 44.8411 15.3425 44.8468 15.4328C44.8468 15.5741 44.8468 15.7153 44.8468 15.8509C44.8468 15.9356 44.8468 16.026 44.8468 16.1107C44.8468 16.2576 44.8411 16.4045 44.8355 16.5513C44.8355 16.6248 44.8355 16.7039 44.8298 16.7773C44.8185 16.9863 44.8072 17.1897 44.7846 17.3987C44.7846 17.41 44.7846 17.4213 44.7846 17.4326C44.762 17.6472 44.7338 17.8619 44.6999 18.0709C44.6886 18.1387 44.6773 18.2008 44.666 18.2686C44.6378 18.4155 44.6095 18.5567 44.5813 18.7036C44.5587 18.8053 44.5304 18.9069 44.5078 19.0086C44.4852 19.0877 44.4683 19.1668 44.4457 19.2459C44.4118 19.3532 44.3779 19.4605 44.3384 19.5679C44.3158 19.6413 44.2875 19.7147 44.2649 19.7882C44.2423 19.839 44.2197 19.8955 44.1971 19.9463C44.1237 20.1214 44.0503 20.3022 43.9599 20.4773C43.926 20.5508 43.8921 20.6186 43.8526 20.6863C43.7791 20.8219 43.7 20.9631 43.6153 21.0987C43.5758 21.1665 43.5362 21.2343 43.491 21.2964C43.3724 21.4772 43.2481 21.6523 43.1069 21.8274C43.09 21.85 43.0787 21.867 43.0617 21.8896C42.9205 22.0647 42.768 22.2341 42.6098 22.4093C42.4742 22.5505 42.3387 22.6804 42.2031 22.8047C42.1692 22.8329 42.1409 22.8668 42.107 22.8951C41.9658 23.0193 41.8189 23.138 41.6777 23.2453C41.497 23.3809 41.3218 23.4995 41.1411 23.6068C41.1072 23.6294 41.0676 23.6464 41.0337 23.6633C40.8869 23.7481 40.74 23.8271 40.5931 23.8949C40.4971 23.9401 40.4011 23.9797 40.305 24.0136C40.2429 24.0362 40.1864 24.0644 40.1243 24.087C40.0113 24.1265 39.8983 24.1604 39.7797 24.1943C39.7345 24.2056 39.6893 24.2226 39.6441 24.2339C39.486 24.2734 39.3221 24.3129 39.1583 24.3412C39.1244 24.3412 39.0962 24.3468 39.0623 24.3525C38.9323 24.3751 38.8024 24.392 38.6725 24.4033C38.4522 24.4259 38.2319 24.4316 38.0059 24.4372C37.9494 24.4372 37.8929 24.4372 37.8365 24.4372C37.65 24.4372 37.4636 24.4259 37.2716 24.4146C37.2264 24.4146 37.1812 24.4146 37.1416 24.409C36.9157 24.392 36.6897 24.3638 36.4638 24.3355C36.4073 24.3299 36.3564 24.3186 36.3 24.3129C36.1079 24.2847 35.9158 24.2565 35.7238 24.2226C35.6786 24.2169 35.6334 24.2056 35.5825 24.2C35.1984 24.1322 34.8086 24.0531 34.4132 23.974C34.0291 23.8949 33.6393 23.8215 33.2495 23.7481C33.2326 23.7481 33.2156 23.7424 33.1987 23.7368C33.1705 23.7368 33.1366 23.7255 33.1083 23.7198C32.9163 23.6859 32.7185 23.6577 32.5265 23.6294C32.4643 23.6181 32.4022 23.6125 32.3457 23.6012C32.1085 23.5673 31.8768 23.5447 31.6396 23.5221C31.6001 23.5221 31.5605 23.5221 31.5266 23.5164C31.3233 23.4995 31.1255 23.4939 30.9222 23.4939C30.86 23.4939 30.7979 23.4939 30.7358 23.4939C30.4985 23.4939 30.2613 23.5052 30.024 23.5277H30.0127C29.8432 23.5447 29.6738 23.5673 29.4987 23.6012C29.4591 23.6068 29.4196 23.6181 29.38 23.6238C29.2445 23.652 29.1089 23.6803 28.9733 23.7142C28.9112 23.7311 28.849 23.7537 28.7869 23.7707C28.6739 23.8045 28.5666 23.8384 28.4536 23.878C28.3858 23.9006 28.3124 23.9345 28.2446 23.9627C28.1655 23.9966 28.0864 24.0192 28.0073 24.0587C27.9847 24.07 27.9678 24.0813 27.9452 24.0926C27.787 24.1661 27.6289 24.2508 27.4707 24.3412C27.4312 24.3638 27.3916 24.3807 27.3521 24.4033C27.1544 24.522 26.9566 24.6519 26.7646 24.7988C26.7533 24.8044 26.742 24.8101 26.7307 24.8213C26.5838 24.9343 26.4369 25.053 26.2957 25.1829C26.2618 25.2111 26.2279 25.2507 26.194 25.2789C26.1037 25.3636 26.0133 25.4427 25.9229 25.5331C25.8664 25.5896 25.8099 25.6461 25.7534 25.7082C25.5783 25.8946 25.4145 26.0811 25.262 26.2675C25.262 26.2675 25.2394 26.307 25.2281 26.324C25.0756 26.516 24.9343 26.7137 24.8044 26.9114C24.7931 26.934 24.7762 26.951 24.7592 26.9736C24.7253 27.0244 24.7027 27.0753 24.6688 27.1261C24.5784 27.273 24.4881 27.4255 24.409 27.578C24.3864 27.6176 24.3638 27.6515 24.3468 27.691C24.3299 27.7305 24.3129 27.7701 24.296 27.804C24.2 28.0017 24.1096 28.1994 24.0305 28.3971C24.0136 28.431 23.9966 28.4705 23.9797 28.5044C23.974 28.5214 23.9684 28.5383 23.9627 28.5496C23.9345 28.6287 23.9062 28.7135 23.878 28.7925C23.8384 28.9055 23.7989 29.0241 23.765 29.1371C23.7368 29.2219 23.7198 29.3122 23.6972 29.397C23.6746 29.4817 23.652 29.5608 23.6294 29.6455C23.6238 29.6738 23.6181 29.6964 23.6125 29.7246C23.5729 29.8828 23.5447 30.0466 23.5165 30.2104C23.5052 30.2726 23.4939 30.3347 23.4826 30.4025C23.4487 30.6284 23.4148 30.8544 23.3922 31.086C23.3922 31.1255 23.3865 31.1707 23.3809 31.2103C23.3639 31.3967 23.347 31.5888 23.3357 31.7752C23.3357 31.8599 23.33 31.939 23.3244 32.0237C23.3187 32.1762 23.3131 32.3231 23.3131 32.4756C23.3131 32.566 23.3131 32.6564 23.3131 32.7468C23.3131 32.888 23.3131 33.0349 23.3131 33.1761C23.3131 33.2665 23.3131 33.3625 23.3187 33.4529C23.3187 33.5998 23.33 33.7466 23.3357 33.8879C23.3357 33.9782 23.3413 34.063 23.347 34.1534C23.3526 34.3172 23.3639 34.4754 23.3752 34.6392C23.3752 34.7126 23.3809 34.7804 23.3865 34.8538C23.3978 35.0798 23.4148 35.3057 23.4317 35.5317C23.4487 35.7577 23.46 35.978 23.4713 36.2039C23.4713 36.2774 23.4769 36.3451 23.4826 36.4186C23.4939 36.5767 23.4995 36.7349 23.5108 36.8987C23.5108 36.9835 23.5165 37.0682 23.5221 37.1529C23.5277 37.2942 23.5334 37.441 23.539 37.5823C23.539 37.6726 23.5391 37.763 23.5447 37.8534C23.5447 37.9946 23.5447 38.1359 23.5447 38.2714C23.5447 38.3562 23.5447 38.4465 23.5447 38.5313C23.5447 38.6782 23.539 38.8307 23.5334 38.9775C23.5334 39.051 23.5334 39.1244 23.5277 39.1978C23.5164 39.4125 23.4995 39.6215 23.4826 39.8305V39.8531C23.46 40.0678 23.4317 40.2824 23.3978 40.4915C23.3865 40.5592 23.3752 40.627 23.3583 40.6892C23.33 40.836 23.3018 40.9773 23.2735 41.1241C23.251 41.2258 23.2227 41.3275 23.2001 41.4235C23.1775 41.5026 23.1606 41.5817 23.138 41.6608C23.1041 41.7681 23.0702 41.8754 23.0306 41.9828C23.0081 42.0562 22.9798 42.1296 22.9572 42.2031C22.9346 42.2596 22.912 42.3104 22.8894 42.3669C22.816 42.542 22.7426 42.7171 22.6522 42.8922C22.6183 42.96 22.5844 43.0335 22.5448 43.1013C22.4714 43.2368 22.3923 43.378 22.3076 43.5136C22.268 43.5814 22.2285 43.6492 22.1833 43.7113C22.0647 43.8921 21.9404 44.0672 21.7992 44.2423C21.7822 44.2649 21.7709 44.2819 21.754 44.3045C21.6128 44.4796 21.4602 44.6491 21.3021 44.8242C21.1665 44.9654 21.0309 45.0953 20.8954 45.2196C20.8615 45.2478 20.8276 45.2817 20.7993 45.31C20.6581 45.4343 20.5112 45.5529 20.37 45.6602C20.1892 45.7958 20.0141 45.9144 19.8334 46.0274C19.7995 46.05 19.7599 46.0669 19.726 46.0839C19.5792 46.1686 19.4323 46.242 19.2854 46.3098C19.1894 46.355 19.0934 46.3946 18.9973 46.4285C18.9352 46.4511 18.8787 46.4793 18.8165 46.5019C18.7036 46.5414 18.5849 46.5753 18.472 46.6092C18.4268 46.6205 18.3816 46.6375 18.3364 46.6488C18.1782 46.6883 18.0144 46.7279 17.8506 46.7561C17.8223 46.7561 17.7884 46.7617 17.7602 46.7674C17.6303 46.79 17.5004 46.8069 17.3704 46.8182C17.1501 46.8408 16.9242 46.8465 16.6982 46.8521C16.6417 46.8521 16.5852 46.8521 16.5287 46.8521C16.3367 46.8521 16.1446 46.8408 15.9526 46.8295C15.913 46.8295 15.8735 46.8295 15.8283 46.8239C15.6023 46.8069 15.3707 46.7787 15.1448 46.7448C15.0883 46.7392 15.0318 46.7279 14.9753 46.7222C14.7832 46.694 14.5912 46.6657 14.3934 46.6318C14.3483 46.6262 14.3031 46.6149 14.2579 46.6092C13.8794 46.5414 13.4953 46.468 13.1111 46.3889C12.727 46.3098 12.3372 46.2364 11.9475 46.163C11.9305 46.163 11.9136 46.1573 11.8966 46.1517C11.8684 46.1517 11.8345 46.1404 11.8062 46.1347C11.6142 46.1008 11.4165 46.0726 11.2244 46.0443C11.1623 46.033 11.1058 46.0274 11.0436 46.0161C10.8064 45.9822 10.5691 45.9596 10.3375 45.937C10.298 45.937 10.2641 45.937 10.2245 45.9314C10.0212 45.9144 9.82347 45.9088 9.62011 45.9088C9.55797 45.9088 9.49583 45.9088 9.43369 45.9088C9.19644 45.9088 8.95919 45.9201 8.72193 45.9427H8.71063C8.54117 45.9596 8.3717 45.9822 8.19658 46.0161C8.15704 46.0217 8.1175 46.033 8.07796 46.0443C7.94238 46.0726 7.80681 46.1008 7.67123 46.1347C7.6091 46.1517 7.54696 46.1743 7.48482 46.1912C7.37184 46.2251 7.26451 46.259 7.15153 46.2985C7.08375 46.3211 7.01031 46.355 6.94252 46.3833C6.86343 46.4172 6.78435 46.4398 6.70526 46.4793C6.68267 46.4906 6.66572 46.5019 6.64313 46.5132C6.48496 46.5866 6.32679 46.6714 6.16862 46.7617C6.12908 46.7843 6.08953 46.8013 6.04434 46.8295C5.84663 46.9482 5.65457 47.0781 5.45686 47.225C5.44556 47.2306 5.43426 47.2363 5.42861 47.2476C5.28174 47.3605 5.13487 47.4792 4.99365 47.6091C4.95975 47.6373 4.92586 47.6712 4.89197 47.7051C4.80158 47.7899 4.7112 47.8689 4.62082 47.9593C4.56433 48.0158 4.50784 48.0723 4.45135 48.1344C4.27623 48.3209 4.11241 48.5073 3.95989 48.6937H3.95424C3.95424 48.6937 3.93165 48.7332 3.9147 48.7502C3.76218 48.9422 3.62096 49.1343 3.49103 49.332C3.47973 49.3546 3.46279 49.3716 3.44584 49.3941C3.41195 49.445 3.38935 49.4958 3.35546 49.5467C3.26508 49.6992 3.17469 49.8461 3.09561 49.9986C3.07301 50.0381 3.05042 50.072 3.03347 50.1116C3.01652 50.1511 2.99958 50.1906 2.98263 50.2245C2.8866 50.4223 2.79621 50.62 2.71713 50.8177C2.70018 50.8516 2.68324 50.8911 2.66629 50.925C2.66064 50.9419 2.65499 50.9589 2.64934 50.9702C2.6211 51.0493 2.59285 51.134 2.56461 51.2131C2.52507 51.3261 2.48553 51.4447 2.45163 51.5577C2.42339 51.6424 2.40644 51.7271 2.38384 51.8175C2.36125 51.9023 2.33865 51.9813 2.31606 52.0661C2.31041 52.0943 2.30476 52.1169 2.29911 52.1452C2.25957 52.3033 2.23132 52.4672 2.20308 52.631C2.19178 52.6931 2.18049 52.7552 2.16919 52.823C2.13529 53.049 2.1014 53.275 2.0788 53.5066C2.0788 53.5461 2.07316 53.5913 2.06751 53.6308C2.05056 53.8173 2.03361 54.0093 2.02231 54.1957C2.02231 54.2805 2.01666 54.3595 2.01101 54.4443C2.00536 54.5968 1.99972 54.7437 1.99972 54.8962C1.99972 54.9866 1.99972 55.077 1.99972 55.1673C1.99972 55.3086 1.99972 55.4554 1.99972 55.5967C1.99972 55.687 1.99972 55.7831 2.00537 55.8735C2.00537 56.0203 2.01667 56.1672 2.02231 56.3141C2.02231 56.4045 2.02796 56.4892 2.03361 56.5796C2.03926 56.7434 2.05056 56.9016 2.06186 57.0654C2.06186 57.1388 2.0675 57.2066 2.07315 57.28C2.08445 57.506 2.1014 57.732 2.11834 57.9579C2.13529 58.1839 2.14659 58.4098 2.16354 58.6358C2.16354 58.7036 2.16918 58.7714 2.17483 58.8391C2.18613 58.9973 2.19178 59.1611 2.20308 59.3193C2.20308 59.404 2.20873 59.4888 2.21438 59.5735C2.22002 59.7204 2.22567 59.8616 2.23132 60.0028C2.23132 60.0932 2.23132 60.1779 2.23697 60.2683C2.23697 60.4095 2.23697 60.5451 2.23697 60.6863C2.23697 60.7711 2.23697 60.8615 2.23697 60.9462C2.23697 61.0931 2.23132 61.2399 2.22568 61.3868C2.22568 61.4602 2.22567 61.5393 2.22003 61.6128C2.20873 61.8218 2.19743 62.0251 2.17483 62.2341C2.17483 62.2454 2.17483 62.2567 2.17483 62.268C2.15224 62.4827 2.12399 62.6973 2.0901 62.9064C2.0788 62.9741 2.0675 63.0363 2.05621 63.1041C2.02796 63.2509 1.99972 63.3922 1.97147 63.539C1.94888 63.6407 1.92063 63.7424 1.89804 63.8441C1.87544 63.9232 1.85849 64.0023 1.8359 64.0813C1.80201 64.1887 1.76811 64.296 1.72857 64.4033C1.70597 64.4768 1.67773 64.5502 1.65513 64.6236C1.63254 64.6801 1.60994 64.731 1.58734 64.7818C1.51391 64.9569 1.44047 65.1377 1.35009 65.3071C1.3162 65.3806 1.2823 65.4484 1.24276 65.5162C1.16932 65.6517 1.09024 65.793 1.00551 65.9285C0.965965 65.9963 0.926421 66.0641 0.88123 66.1262C0.762603 66.307 0.638326 66.4821 0.497103 66.6572C0.480157 66.6798 0.468862 66.6968 0.451915 66.7194C0.310692 66.8945 0.15817 67.064 0 67.2391L15.7831 74.7183C15.9469 74.5488 16.0938 74.3737 16.235 74.1986H16.2406C16.2406 74.1986 16.2632 74.1534 16.2802 74.1364C16.4158 73.9613 16.5457 73.7862 16.6643 73.6054C16.6756 73.5885 16.6926 73.5659 16.7039 73.5489C16.7321 73.5037 16.7547 73.4529 16.7886 73.4077C16.8733 73.2721 16.9524 73.1366 17.0258 72.9953C17.0428 72.9614 17.0654 72.9275 17.088 72.8937C17.1049 72.8598 17.1162 72.8202 17.1388 72.7863C17.2236 72.6112 17.3026 72.4361 17.3761 72.2553C17.393 72.2214 17.41 72.1819 17.4269 72.148C17.4326 72.131 17.4382 72.1141 17.4439 72.0972C17.4721 72.0237 17.4947 71.9503 17.5173 71.8768C17.5512 71.7695 17.5907 71.6622 17.6246 71.5549C17.6472 71.4758 17.6698 71.3967 17.6868 71.3176C17.7037 71.2442 17.7263 71.1764 17.7433 71.1029C17.7489 71.0747 17.7546 71.0465 17.7602 71.0182C17.7941 70.8713 17.8223 70.7301 17.8449 70.5832C17.8562 70.5155 17.8732 70.4533 17.8788 70.3855C17.9127 70.1709 17.941 69.9619 17.9636 69.7472C17.9636 69.7359 17.9636 69.7246 17.9636 69.7133C17.9862 69.5099 17.9975 69.3009 18.0088 69.0919C18.0088 69.0185 18.0088 68.9451 18.0144 68.866C18.0144 68.7191 18.0257 68.5722 18.0257 68.4254C18.0257 68.3406 18.0257 68.2502 18.0257 68.1655C18.0257 68.0243 18.0257 67.8887 18.0257 67.7475C18.0257 67.6571 18.0257 67.5667 18.02 67.482C18.02 67.3408 18.0088 67.1939 18.0031 67.0527C18.0031 66.9679 17.9975 66.8832 17.9918 66.7985C17.9862 66.6346 17.9749 66.4765 17.9636 66.3127C17.9636 66.2449 17.9579 66.1771 17.9523 66.1093C17.941 65.8833 17.924 65.6574 17.9071 65.4314C17.8901 65.2055 17.8788 64.9795 17.8619 64.7536C17.8619 64.6801 17.8562 64.6123 17.8506 64.5389C17.8393 64.3751 17.8336 64.2169 17.8223 64.0531C17.8223 63.9627 17.8167 63.878 17.811 63.7876C17.8054 63.6407 17.7997 63.4938 17.7941 63.347C17.7941 63.2566 17.7941 63.1606 17.7885 63.0702C17.7885 62.929 17.7885 62.7821 17.7885 62.6409C17.7885 62.5505 17.7885 62.4601 17.7885 62.3697C17.7885 62.2172 17.7941 62.0703 17.7997 61.9178C17.7997 61.8331 17.7997 61.754 17.811 61.6692C17.8223 61.4828 17.8336 61.2908 17.8562 61.1044C17.8562 61.0648 17.8619 61.0196 17.8675 60.9801C17.8901 60.7541 17.9184 60.5225 17.9579 60.3022C17.9692 60.2401 17.9805 60.1779 17.9918 60.1101C18.0201 59.9463 18.0539 59.7882 18.0878 59.6243C18.1104 59.517 18.1443 59.4097 18.1726 59.2967C18.1952 59.212 18.2178 59.1216 18.2404 59.0368C18.2743 58.9239 18.3138 58.8052 18.3533 58.6923C18.3816 58.6132 18.4042 58.5284 18.4381 58.4494C18.455 58.3985 18.4833 58.3477 18.5002 58.2968C18.5793 58.0991 18.6697 57.9014 18.7657 57.7037C18.8053 57.6303 18.8391 57.5512 18.8787 57.4777C18.9578 57.3252 19.0482 57.1727 19.1385 57.0258C19.1837 56.9524 19.2233 56.8846 19.2685 56.8112C19.3984 56.6135 19.5396 56.4214 19.6921 56.2237C19.7091 56.2067 19.7204 56.1842 19.7317 56.1672C19.8842 55.9808 20.048 55.7887 20.2231 55.608C20.37 55.4554 20.5169 55.3142 20.6637 55.1786C20.6976 55.1447 20.7315 55.1108 20.7654 55.0826C20.9179 54.947 21.0761 54.8171 21.2343 54.7041C21.4263 54.5573 21.6241 54.4273 21.8218 54.3087C21.8613 54.2861 21.9009 54.2635 21.9404 54.2409C22.0986 54.1505 22.2567 54.0658 22.4149 53.9924C22.5109 53.9472 22.6126 53.9076 22.7087 53.8681C22.7764 53.8398 22.8499 53.8116 22.9177 53.7834C23.0306 53.7438 23.138 53.7099 23.251 53.676C23.3131 53.6591 23.3752 53.6365 23.4374 53.6195C23.5729 53.5856 23.7085 53.5574 23.8441 53.5292C23.8836 53.5235 23.9232 53.5122 23.9627 53.5009C24.1378 53.4727 24.3129 53.4444 24.4824 53.4275C24.7197 53.4049 24.9569 53.3936 25.1942 53.3936C25.2563 53.3936 25.3185 53.3936 25.3806 53.3936C25.584 53.3936 25.7817 53.4049 25.985 53.4162C26.0246 53.4162 26.0585 53.4162 26.098 53.4218C26.3353 53.4388 26.5725 53.467 26.8041 53.5009C26.8663 53.5066 26.9228 53.5179 26.9849 53.5292C27.177 53.5574 27.3747 53.5856 27.5667 53.6195C27.6119 53.6252 27.6571 53.6365 27.7023 53.6421C28.0921 53.7099 28.4819 53.789 28.866 53.8681C29.2501 53.9472 29.6342 54.0206 30.0127 54.0884C30.0297 54.0884 30.0466 54.094 30.0635 54.0997C30.0918 54.0997 30.12 54.111 30.1483 54.111C30.3403 54.1449 30.5381 54.1731 30.7301 54.2014C30.7866 54.207 30.8431 54.2183 30.8996 54.224C31.1312 54.2579 31.3572 54.2805 31.5831 54.3031C31.6227 54.3031 31.6622 54.3031 31.7017 54.3087C31.8938 54.32 32.0859 54.3313 32.2779 54.3313C32.3344 54.3313 32.3909 54.3313 32.4474 54.3313C32.6734 54.3313 32.8937 54.32 33.1196 54.2974C33.1253 54.2974 33.1366 54.2974 33.1422 54.2974C33.2608 54.2861 33.3795 54.2692 33.4981 54.2466C33.532 54.2466 33.5659 54.2409 33.5941 54.2353C33.7579 54.207 33.9161 54.1731 34.0799 54.1279C34.1251 54.1166 34.1703 54.0997 34.2155 54.0884C34.3285 54.0545 34.4415 54.0206 34.5601 53.9811C34.6222 53.9585 34.6787 53.9302 34.7409 53.9076C34.8199 53.8794 34.899 53.8511 34.9725 53.8116C34.9894 53.8059 35.0064 53.7947 35.0233 53.7834C35.1702 53.7156 35.317 53.6365 35.4639 53.5518C35.4978 53.5292 35.5374 53.5122 35.5712 53.4953C35.752 53.3879 35.9328 53.2637 36.1079 53.1337C36.1192 53.1281 36.1248 53.1224 36.1361 53.1168C36.2717 53.0151 36.4073 52.9021 36.5372 52.7835C36.5711 52.7553 36.605 52.7214 36.6332 52.6931C36.718 52.6197 36.7971 52.5462 36.8818 52.4615C36.9326 52.4107 36.9891 52.3542 37.04 52.2977C37.2038 52.1282 37.3507 51.9531 37.4919 51.778H37.4975C37.4975 51.778 37.5201 51.7328 37.5371 51.7159C37.6726 51.5407 37.8026 51.3656 37.9212 51.1849C37.9325 51.1679 37.9494 51.1453 37.9607 51.1284C37.989 51.0832 38.0116 51.0323 38.0455 50.9871C38.1302 50.8516 38.2093 50.716 38.2827 50.5748C38.2997 50.5409 38.3223 50.507 38.3392 50.4731C38.3562 50.4392 38.3675 50.3997 38.3901 50.3658C38.4748 50.1906 38.5539 50.0155 38.6273 49.8404C38.6443 49.8065 38.6612 49.767 38.6782 49.7331C38.6838 49.7161 38.6894 49.6992 38.6951 49.6822C38.7233 49.6088 38.7459 49.5354 38.7742 49.4619C38.8081 49.3546 38.8476 49.2473 38.8815 49.1399C38.9041 49.0609 38.9267 48.9818 38.9437 48.9027C38.9606 48.8293 38.9832 48.7615 39.0001 48.688C39.0058 48.6598 39.0114 48.6315 39.0171 48.6033C39.051 48.4564 39.0792 48.3152 39.1018 48.1683C39.1131 48.1005 39.1301 48.0384 39.1357 47.9706C39.1696 47.756 39.1979 47.5469 39.2205 47.3323V47.3097C39.243 47.1007 39.26 46.8917 39.2713 46.677C39.2713 46.6036 39.2713 46.5301 39.2769 46.4567C39.2769 46.3098 39.2882 46.163 39.2882 46.0104C39.2882 45.9257 39.2882 45.8353 39.2882 45.7506C39.2882 45.6094 39.2882 45.4738 39.2882 45.3326C39.2882 45.2422 39.2882 45.1518 39.2826 45.0614C39.2826 44.9202 39.2713 44.7733 39.2656 44.6321C39.2656 44.5474 39.26 44.4626 39.2543 44.3779C39.2487 44.2197 39.2374 44.0616 39.2261 43.9034C39.2261 43.83 39.2204 43.7565 39.2148 43.6887C39.2035 43.4684 39.1866 43.2425 39.1753 43.0165C39.1583 42.7906 39.147 42.5646 39.1301 42.3386C39.1301 42.2652 39.1244 42.1974 39.1188 42.124C39.1075 41.9602 39.1018 41.802 39.0905 41.6382C39.0905 41.5478 39.0849 41.4631 39.0792 41.3727C39.0736 41.2258 39.0679 41.0789 39.0623 40.9321C39.0623 40.8417 39.0623 40.7457 39.0566 40.6553C39.0566 40.514 39.0566 40.3672 39.0566 40.226C39.0566 40.1356 39.0566 40.0395 39.0566 39.9492C39.0566 39.7966 39.0623 39.6498 39.0679 39.4972C39.0679 39.4182 39.0679 39.3334 39.0792 39.2543C39.0905 39.0679 39.1018 38.8815 39.1188 38.6894C39.1188 38.6443 39.1244 38.6047 39.1301 38.5595C39.1527 38.3336 39.1809 38.1076 39.2205 37.8816C39.2317 37.8195 39.243 37.7574 39.2543 37.6896C39.2826 37.5258 39.3165 37.3676 39.3504 37.2038C39.373 37.0964 39.4069 36.9835 39.4351 36.8761C39.4577 36.7914 39.4803 36.701 39.5029 36.6163C39.5368 36.4977 39.5763 36.3847 39.6159 36.2717C39.6441 36.1926 39.6667 36.1079 39.7006 36.0288C39.7176 35.978 39.7458 35.9271 39.7627 35.8706C39.8418 35.6729 39.9322 35.4752 40.0282 35.2775C40.0678 35.2041 40.1017 35.125 40.1412 35.0515C40.2203 34.899 40.3107 34.7522 40.4011 34.5996C40.4463 34.5262 40.4858 34.4584 40.531 34.385C40.6609 34.1873 40.8021 33.9952 40.9547 33.7975C40.9716 33.7805 40.9829 33.7579 40.9942 33.741C41.1467 33.5546 41.3105 33.3625 41.4857 33.1817C41.6325 33.0292 41.7794 32.888 41.9263 32.7524C41.9602 32.7185 41.9941 32.6846 42.028 32.6564C42.1805 32.5208 42.3386 32.3909 42.4968 32.2779C42.6889 32.1311 42.8866 32.0011 43.0843 31.8825C43.1239 31.8599 43.1634 31.8373 43.2086 31.8147C43.3668 31.7243 43.5249 31.6396 43.6831 31.5662C43.7791 31.521 43.8808 31.4814 43.9768 31.4419C44.0446 31.4136 44.1181 31.3854 44.1858 31.3571C44.2988 31.3176 44.4062 31.2837 44.5191 31.2498C44.5813 31.2329 44.6434 31.2103 44.7055 31.1933C44.8411 31.1594 44.9767 31.1312 45.1123 31.1029C45.1518 31.0973 45.1914 31.086 45.2309 31.0804C45.406 31.0521 45.5811 31.0239 45.7562 31.0069C45.9935 30.9843 46.2308 30.973 46.468 30.973C46.5301 30.973 46.5923 30.973 46.6544 30.973C46.8578 30.973 47.0555 30.9843 47.2589 30.9956C47.2984 30.9956 47.3323 30.9956 47.3718 31.0013C47.6091 31.0182 47.8463 31.0465 48.078 31.0804C48.1401 31.086 48.1966 31.0973 48.2587 31.1086C48.4564 31.1368 48.6485 31.1707 48.8462 31.2046C48.8914 31.2103 48.9366 31.2216 48.9818 31.2272C49.3716 31.295 49.7613 31.3741 50.1455 31.4532C50.5352 31.5323 50.925 31.6057 51.3091 31.6791C51.3261 31.6791 51.3487 31.6848 51.3656 31.6904C51.3939 31.6904 51.4278 31.7017 51.456 31.7074C51.6481 31.7413 51.8345 31.7695 52.0266 31.7978C52.083 31.8034 52.1395 31.8147 52.196 31.8204C52.422 31.8486 52.6479 31.8769 52.8739 31.8938C52.9191 31.8938 52.9643 31.8938 53.0038 31.9051C53.1902 31.9164 53.3823 31.9277 53.5687 31.9277C53.6252 31.9277 53.6817 31.9277 53.7382 31.9277C53.9585 31.9277 54.1844 31.9164 54.4047 31.8938C54.4104 31.8938 54.4217 31.8938 54.4273 31.8938C54.546 31.8825 54.6646 31.8656 54.7832 31.843C54.8171 31.843 54.851 31.8373 54.8849 31.8317C55.0487 31.8034 55.2069 31.7695 55.3707 31.7243C55.4159 31.713 55.4611 31.6961 55.5063 31.6848C55.6193 31.6509 55.7379 31.617 55.8509 31.5775C55.913 31.5549 55.9695 31.5266 56.0316 31.504C56.1107 31.4701 56.1898 31.4475 56.2632 31.408C56.2802 31.4023 56.2971 31.391 56.3141 31.3797C56.461 31.312 56.6078 31.2329 56.7547 31.1481C56.7886 31.1255 56.8281 31.1142 56.862 31.0916C57.0428 30.9843 57.2236 30.86 57.3987 30.7301C57.41 30.7245 57.4156 30.7188 57.4269 30.7132C57.5625 30.6115 57.6981 30.4985 57.828 30.3799C57.8619 30.3516 57.8901 30.3177 57.924 30.2895C58.0087 30.2161 58.0878 30.137 58.1726 30.0579C58.2234 30.0071 58.2799 29.9506 58.3307 29.8941C58.4946 29.7246 58.6414 29.5495 58.7827 29.3744H58.7883C58.7883 29.3744 58.8109 29.3292 58.8278 29.3122C58.9634 29.1371 59.0933 28.962 59.212 28.7812C59.2233 28.7643 59.2402 28.7417 59.2515 28.7248C59.2798 28.6796 59.3024 28.6287 59.3362 28.5835C59.421 28.448 59.5001 28.3124 59.5735 28.1712C59.5905 28.1373 59.613 28.1034 59.6356 28.0695C59.6526 28.0356 59.6639 27.996 59.6865 27.9621C59.7712 27.787 59.8503 27.6119 59.9237 27.4312C59.9407 27.3973 59.9576 27.3577 59.9746 27.3238C59.9802 27.3069 59.9859 27.2899 59.9915 27.273C60.0198 27.1995 60.0424 27.1261 60.065 27.0527C60.0989 26.9453 60.1384 26.838 60.1723 26.7307C60.1949 26.6516 60.2175 26.5725 60.2344 26.4934C60.2514 26.42 60.274 26.3522 60.2909 26.2788C60.2966 26.2505 60.3022 26.2223 60.3079 26.194C60.3418 26.0472 60.37 25.9059 60.3926 25.7591C60.4039 25.6913 60.4208 25.6291 60.4265 25.5614C60.4604 25.3467 60.4886 25.1377 60.5112 24.923C60.5112 24.9117 60.5112 24.9004 60.5112 24.8891C60.5338 24.6858 60.5451 24.4768 60.5564 24.2678C60.5564 24.1943 60.5564 24.1209 60.5621 24.0418C60.5621 23.8949 60.5734 23.7481 60.5734 23.6012C60.5734 23.5164 60.5734 23.4261 60.5734 23.3413C60.5734 23.2001 60.5734 23.0645 60.5734 22.9233C60.5734 22.8329 60.5734 22.7425 60.5677 22.6578C60.5677 22.5166 60.5564 22.3697 60.5508 22.2285C60.5508 22.1438 60.5451 22.059 60.5395 21.9743C60.5338 21.8105 60.5225 21.6523 60.5112 21.4885C60.5112 21.4207 60.5056 21.3529 60.4999 21.2851C60.4886 21.0592 60.4717 20.8332 60.4547 20.6129C60.4378 20.3869 60.4265 20.161 60.4095 19.935C60.4095 19.8616 60.4039 19.7938 60.3982 19.7204C60.3869 19.5566 60.3813 19.3984 60.37 19.2346C60.37 19.1442 60.3644 19.0595 60.3587 18.9691C60.3531 18.8222 60.3474 18.6753 60.3418 18.5285C60.3418 18.4381 60.3418 18.342 60.3361 18.2517C60.3361 18.1104 60.3361 17.9636 60.3361 17.8223C60.3361 17.732 60.3361 17.6416 60.3361 17.5512C60.3361 17.3987 60.3418 17.2518 60.3474 17.0993C60.3474 17.0145 60.3474 16.9355 60.3587 16.8507C60.37 16.6643 60.3813 16.4722 60.4039 16.2858C60.4039 16.2463 60.4095 16.2011 60.4152 16.1616C60.4378 15.9356 60.466 15.704 60.5056 15.478C60.5169 15.4159 60.5282 15.3538 60.5395 15.286C60.5677 15.1222 60.6016 14.964 60.6355 14.8002C60.6581 14.6928 60.692 14.5799 60.7202 14.4725C60.7428 14.3878 60.7654 14.2974 60.788 14.2127C60.8219 14.0941 60.8615 13.9811 60.901 13.8681C60.9292 13.789 60.9518 13.7043 60.9857 13.6252C61.0027 13.5744 61.0309 13.5235 61.0479 13.467C61.127 13.2693 61.2173 13.0716 61.3134 12.8739C61.3529 12.8005 61.3868 12.7214 61.4264 12.6479C61.5054 12.4954 61.5958 12.3429 61.6862 12.196C61.7314 12.1226 61.7709 12.0548 61.8161 11.9814C61.9461 11.7836 62.0873 11.5916 62.2398 11.3995C62.2567 11.3826 62.268 11.36 62.285 11.343C62.4375 11.1566 62.6013 10.9646 62.7764 10.7838C62.9233 10.6313 63.0702 10.49 63.2171 10.3545C63.251 10.3206 63.2848 10.2867 63.3187 10.2584C63.4713 10.1229 63.6294 9.99294 63.7876 9.87996C63.9853 9.73309 64.1774 9.60316 64.3751 9.48454C64.4146 9.46194 64.4542 9.43934 64.4937 9.41675C64.6519 9.32636 64.81 9.24163 64.9682 9.16819C65.0642 9.123 65.1659 9.08346 65.2676 9.04392C65.3354 9.01567 65.4088 8.98743 65.4766 8.95919C65.5896 8.91964 65.6969 8.88575 65.8099 8.85186C65.872 8.83491 65.9342 8.81231 65.9963 8.79537C66.1319 8.76147 66.2675 8.73323 66.403 8.70498C66.4426 8.69933 66.4821 8.68804 66.5217 8.68239C66.6968 8.65414 66.8719 8.6259 67.047 8.60895C67.2843 8.58636 67.5215 8.57506 67.7588 8.57506C67.8209 8.57506 67.8831 8.57506 67.9452 8.57506C68.1486 8.57506 68.3463 8.58636 68.5496 8.59766C68.5892 8.59766 68.6287 8.59765 68.6626 8.6033C68.8999 8.62025 69.1315 8.6485 69.3687 8.68239C69.4309 8.68804 69.493 8.69933 69.5495 8.71063C69.7416 8.73888 69.9393 8.76712 70.1313 8.80102C70.1765 8.80666 70.2274 8.81796 70.2726 8.82361C70.6623 8.8914 71.0521 8.97048 71.4362 9.04957C71.826 9.12865 72.2158 9.20209 72.5999 9.27552C72.6169 9.27552 72.6338 9.28117 72.6564 9.28682C72.6846 9.28682 72.7129 9.29812 72.7468 9.30377C72.9388 9.33766 73.1253 9.36591 73.3173 9.39415C73.3738 9.3998 73.4303 9.4111 73.4868 9.41675C73.7127 9.44499 73.9387 9.47324 74.1647 9.49018C74.2098 9.49018 74.255 9.49018 74.2946 9.49583C74.481 9.50713 74.6731 9.51843 74.8595 9.51843C74.916 9.51843 74.9725 9.51843 75.029 9.51843C75.2493 9.51843 75.4752 9.50713 75.6955 9.48454C75.7012 9.48454 75.7125 9.48454 75.7181 9.48454C75.8367 9.47324 75.961 9.45629 76.0797 9.43369C76.1135 9.43369 76.1418 9.42805 76.1757 9.4224C76.3395 9.39415 76.4977 9.36026 76.6615 9.31507C76.7067 9.30377 76.7519 9.28682 76.7971 9.27552C76.91 9.24163 77.0287 9.20774 77.1416 9.16819C77.2038 9.1456 77.2603 9.123 77.3224 9.09476C77.4015 9.06651 77.4806 9.03827 77.5597 8.99873C77.5766 8.99308 77.5936 8.98178 77.6105 8.97048C77.7574 8.9027 77.9042 8.82361 78.0455 8.74453C78.0794 8.72193 78.1189 8.70498 78.1528 8.68804C78.3336 8.58071 78.5143 8.45643 78.6894 8.32651C78.7007 8.32086 78.7064 8.31521 78.7177 8.30956C78.8533 8.20788 78.9888 8.0949 79.1188 7.97627C79.1527 7.94803 79.1809 7.91414 79.2148 7.88589C79.2995 7.81246 79.3786 7.73337 79.4633 7.65429L79.5311 7.64299Z"
        fill="url(#paint0_linear_92_852)" />
    <defs>
        <linearGradient id="paint0_linear_92_852" x1="61.6297" y1="-10.4166" x2="16.4157" y2="77.023"
            gradientUnits="userSpaceOnUse">
            <stop stop-color="#8E4B19" />
            <stop offset="0.08" stop-color="#DD9740" />
            <stop offset="0.17" stop-color="#FAEBCB" />
            <stop offset="0.18" stop-color="#F3D394" />
            <stop offset="0.2" stop-color="#E8AA3C" />
            <stop offset="0.28" stop-color="#9A4721" />
            <stop offset="0.38" stop-color="#DD9740" />
            <stop offset="0.46" stop-color="#EBD6A9" />
            <stop offset="0.5" stop-color="#EAB55A" />
            <stop offset="0.51" stop-color="#E09F47" />
            <stop offset="0.52" stop-color="#DD9740" />
            <stop offset="0.56" stop-color="#834016" />
            <stop offset="0.63" stop-color="#97541D" />
            <stop offset="0.69" stop-color="#C37934" />
            <stop offset="0.75" stop-color="#E7B36E" />
            <stop offset="0.81" stop-color="#B46C2A" />
            <stop offset="0.83" stop-color="#9E5920" />
            <stop offset="0.85" stop-color="#904D1B" />
            <stop offset="0.87" stop-color="#8C4919" />
            <stop offset="0.96" stop-color="#A75B29" />
        </linearGradient>
    </defs>
</svg>